<svg width="16" height="16" viewBox="0 0 16 16" fill="none" xmlns="http://www.w3.org/2000/svg">
<g clip-path="url(#clip0)">
<path d="M13.7527 2H12.1255V0.375C12.1255 0.16875 11.9424 0 11.7187 0H10.3626C10.1389 0 9.95583 0.16875 9.95583 0.375V2H5.61652V0.375C5.61652 0.16875 5.43345 0 5.20971 0H3.85367C3.62993 0 3.44686 0.16875 3.44686 0.375V2H1.81962C0.921251 2 0.192383 2.67188 0.192383 3.5V14.5C0.192383 15.3281 0.921251 16 1.81962 16H13.7527C14.6511 16 15.38 15.3281 15.38 14.5V3.5C15.38 2.67188 14.6511 2 13.7527 2ZM13.5493 14.5H2.02303C1.91116 14.5 1.81962 14.4156 1.81962 14.3125V5H13.7527V14.3125C13.7527 14.4156 13.6612 14.5 13.5493 14.5Z" fill="#5E6C84"/>
</g>
<defs>
<clipPath id="clip0">
<rect width="15.1876" height="16" fill="white" transform="translate(0.192383)"/>
</clipPath>
</defs>
</svg>
