<svg width="176" height="88" viewBox="0 0 176 88" fill="none" xmlns="http://www.w3.org/2000/svg">
<g filter="url(#filter0_d)">
<rect x="8" y="2" width="160" height="72" rx="8" fill="#D6373C"/>
</g>
<path fill-rule="evenodd" clip-rule="evenodd" d="M67.8496 27.916L68.2276 27.8314C79.1109 25.4519 99.8905 22.0205 114.118 22.0205C121.008 22.0205 126.377 22.8212 128.251 24.9869C130.895 27.8712 125.337 33.1351 117.062 38.6302C116.745 37.2658 115.916 36.075 114.747 35.3033C116.883 32.5458 117.326 30.2085 115.493 28.3983C109.493 22.4656 81.6596 25.7701 68.2698 28.1497L67.8919 28.2119C67.839 28.2194 67.7862 28.1982 67.7532 28.1562C67.7202 28.1142 67.7122 28.0578 67.7321 28.0082C67.752 27.9587 67.7968 27.9235 67.8496 27.916ZM90.7452 53.2209C95.5118 50.2943 99.9452 47.5169 103.702 44.8639L103.715 44.8514C103.854 45.3335 104.06 45.7938 104.326 46.219C104.309 46.2283 104.295 46.2338 104.283 46.2384C104.267 46.2448 104.255 46.2497 104.242 46.2613C99.5747 48.8398 94.915 51.366 90.872 53.4721L90.7029 53.5566C90.6391 53.5971 90.5545 53.5782 90.514 53.5144C90.4734 53.4505 90.4924 53.3659 90.5562 53.3254L90.7452 53.2209ZM106.102 43.1556C106.186 45.4507 107.638 47.323 109.513 47.323C113.176 47.323 114.735 42.8175 114.628 39.8063C114.543 37.5113 113.069 35.639 111.174 35.639C108.016 35.639 105.995 40.1147 106.099 43.1556H106.102ZM111.562 35.1143C107.099 35.1143 104.045 39.1151 104.172 43.0313C104.279 46.0748 106.221 48.0441 109.205 48.064C113.716 48.064 116.54 44.5342 116.599 40.5774C116.846 40.5396 117.094 40.5155 117.343 40.5051C117.617 40.5051 117.84 40.5473 117.87 40.8208C117.87 40.9468 117.668 41.7883 117.571 42.1965C117.555 42.2636 117.541 42.3189 117.532 42.3575L116.963 44.8216C116.922 44.9981 116.882 45.176 116.841 45.3539C116.651 46.1933 116.46 47.0328 116.269 47.7283H117.701L118.502 43.8121C120.966 41.2435 121.913 40.4006 122.503 40.4006C122.624 40.393 122.743 40.4364 122.831 40.5205C122.919 40.6046 122.967 40.7216 122.965 40.8432C122.987 41.2858 122.692 42.3177 122.607 42.6111L121.787 45.4532C121.609 45.9846 121.503 46.5373 121.471 47.0967C121.491 47.7283 121.871 48.0018 122.438 48.0018C123.428 48.0018 124.158 47.0324 124.804 46.0227C125.115 47.3159 126.118 47.9894 127.319 47.9894C129.022 47.9894 130.497 46.8108 131.213 45.3587L130.919 45.1697L130.922 45.1796C130.36 46.0847 129.239 46.9923 128.122 46.9699C126.839 46.9699 126.207 46.0872 126.165 45.0553C126.133 44.7436 126.162 44.4287 126.25 44.1279C128.567 44.0632 132.083 43.3073 131.999 40.8009C131.946 39.7044 130.989 39.2419 129.957 39.2419C127.545 39.2419 124.609 42.1611 124.708 45.294C124.711 45.3638 124.715 45.4322 124.721 45.4993C124.44 45.9504 123.841 46.8431 123.346 46.8431C123.199 46.8431 123.05 46.7387 123.03 46.4851C123.045 46.0891 123.124 45.698 123.261 45.3263L124.188 41.9795C124.376 41.3841 124.496 40.7694 124.547 40.147C124.527 39.5154 124.169 39.2195 123.599 39.2195C122.652 39.2195 121.389 39.9133 118.736 42.9667H118.693L119.031 41.4748C119.09 41.2228 119.146 40.9688 119.201 40.7206C119.324 40.1605 119.441 39.6304 119.559 39.222C118.588 39.5638 117.597 39.8457 116.591 40.0661C116.453 37.0683 114.505 35.1143 111.562 35.1143ZM124.721 45.4993C124.737 45.6837 124.765 45.8582 124.804 46.0227C124.845 45.9597 124.885 45.8966 124.924 45.8336L124.735 45.4755C124.731 45.4833 124.726 45.4913 124.721 45.4993ZM116.591 40.0661C116.593 40.093 116.594 40.1199 116.595 40.147C116.6 40.2909 116.601 40.4344 116.599 40.5774C116.574 40.5813 116.548 40.5854 116.523 40.5896L116.505 40.0848C116.534 40.0786 116.563 40.0724 116.591 40.0661ZM61.9964 41.9994L61.9808 42.0055L61.9815 42.0019L61.9964 41.9994ZM61.9808 42.0055C61.9435 42.2006 61.9101 42.3627 61.8828 42.4955L61.8827 42.4957L61.8827 42.4957L61.8826 42.4962C61.8483 42.6629 61.8235 42.7833 61.8124 42.8647C61.7525 43.0454 61.6431 43.2056 61.4967 43.3272C61.2743 43.5048 61.0216 43.6404 60.7507 43.7275C60.4522 43.8292 60.1385 43.8788 59.8232 43.8742C59.5096 43.9012 59.1949 43.8355 58.9182 43.6853C58.7425 43.5911 58.6565 43.3869 58.7118 43.1954C58.7547 43.0008 58.8669 42.8285 59.0276 42.7106C59.3253 42.5448 59.6552 42.4448 59.9948 42.4172C60.6695 42.3144 61.1328 42.2315 61.3848 42.1685C61.5884 42.134 61.788 42.0794 61.9808 42.0055ZM65.7718 40.4217L65.7719 40.4217L65.7719 40.4216L65.7719 40.4215C65.826 40.0894 65.8655 39.8464 65.8803 39.5801L65.8754 39.5826C65.8952 38.6029 65.0324 37.8371 62.3595 37.8569C60.6738 37.8722 58.9916 38.0126 57.3268 38.2772L56.6107 40.1918C57.9161 39.8635 60.4424 39.4209 61.7901 39.6945C62.2948 39.7989 62.3992 40.0102 62.3371 40.3882C62.2948 40.5971 62.1854 40.704 61.9368 40.8084C61.5355 40.9516 61.1178 41.0436 60.6935 41.0819C59.4503 41.1863 58.5452 41.2933 57.8714 41.3977C57.3557 41.4616 56.8527 41.6033 56.3795 41.8179C55.9971 41.966 55.656 42.204 55.3849 42.5116C55.1229 42.8207 54.9615 43.2024 54.9224 43.6057C54.9 44.195 55.1312 44.4909 55.6161 44.9111C56.101 45.3313 56.7748 45.4581 57.9957 45.4581C58.5992 45.4683 59.2014 45.3972 59.786 45.2468C60.422 45.071 61.031 44.8092 61.5961 44.4685L61.6384 45.3935H65.383L65.4054 45.2294C65.1308 45.0906 64.9839 44.7845 65.0474 44.4834L65.7112 40.8009C65.7329 40.6609 65.7532 40.536 65.7718 40.4217ZM76.7338 45.3935L78.0392 38.0459H81.6173L80.302 45.3935H76.7338ZM80.3517 35.2461C79.2775 35.2461 78.3302 35.7285 78.2257 36.3402C78.1138 36.9494 78.9145 37.4342 79.9663 37.4342C81.0181 37.4342 81.9803 36.9494 82.0922 36.3402C82.2041 35.731 81.4258 35.2461 80.3517 35.2461ZM94.3755 42.0218L94.3619 42.0262L94.363 42.0193L94.3755 42.0218ZM94.3619 42.0262C94.3176 42.3013 94.2549 42.5731 94.1741 42.8399C94.1147 43.0271 94.0055 43.1947 93.8583 43.3247C93.6387 43.5064 93.3851 43.6425 93.1123 43.7251C92.8135 43.8251 92.5 43.8747 92.1849 43.8718C91.8714 43.8958 91.5575 43.8303 91.2798 43.6828C91.1124 43.5834 91.0273 43.3882 91.0684 43.1979C91.1122 43.0097 91.2249 42.8447 91.3842 42.7354C91.6825 42.5684 92.0132 42.4675 92.354 42.4395C92.6223 42.391 92.8579 42.3516 93.0601 42.3177L93.0606 42.3176L93.0607 42.3176C93.3657 42.2666 93.5944 42.2283 93.7439 42.1909C93.9525 42.1461 94.1588 42.0912 94.3619 42.0262ZM98.121 40.4416L98.121 40.4416C98.1752 40.1093 98.2147 39.8664 98.2295 39.6V39.595C98.2494 38.6153 97.3866 37.8495 94.6714 37.8694C92.9857 37.8846 91.3035 38.0251 89.6387 38.2896L88.945 40.2067C90.2504 39.8785 92.7767 39.4359 94.1243 39.7094C94.6291 39.8138 94.7335 40.0252 94.6714 40.4031C94.6291 40.612 94.5197 40.7189 94.271 40.8233C93.8778 40.9675 93.4673 41.0594 93.0502 41.0968C91.8293 41.2013 90.9018 41.3082 90.228 41.4126C89.7123 41.4764 89.2093 41.6181 88.7361 41.8328C88.347 41.9763 88 42.2148 87.7266 42.5266C87.4788 42.8422 87.3253 43.2215 87.284 43.6206C87.2616 44.2099 87.4929 44.5058 87.9777 44.926C88.4626 45.3462 89.1563 45.4731 90.3573 45.4731C90.9684 45.4783 91.5773 45.4005 92.1675 45.2418C92.8035 45.0661 93.4125 44.8042 93.9776 44.4635L93.9975 45.3786H97.7447L97.767 45.2518C97.4956 45.1099 97.3499 44.8063 97.409 44.5058L98.0604 40.8208C98.0821 40.6808 98.1024 40.5559 98.121 40.4416ZM54.4425 42.7578C53.4631 42.9758 52.4621 43.0817 51.4587 43.0736C49.753 43.0736 48.3854 42.2307 48.4476 40.6518C48.5097 39.6199 49.7331 37.4193 52.8685 37.4193C53.8479 37.3932 54.8137 37.6524 55.6484 38.1653L56.101 35.6216C54.97 35.1755 53.7572 34.9746 52.5428 35.0323C48.4575 35.0945 44.5214 36.9394 44.0365 40.7363C43.5392 44.5879 48.2462 45.5576 50.3323 45.5576C51.5333 45.5576 52.7964 45.4954 53.9527 45.3885L54.4425 42.7578ZM83.8452 36.5093L83.5965 38.0012L82.1668 37.9813L81.8933 39.4732H83.2609L82.1867 45.3685C82.1949 45.3463 85.807 45.3686 85.807 45.3686L86.8812 39.4856H88.6715L89.0295 38.0111H87.197L87.5973 35.6962L83.8452 36.5093ZM101.87 45.3885H98.227L100.06 35.1367L103.618 35.2412L101.87 45.3885ZM70.6892 40.1893C71.0623 39.9165 71.5125 39.7693 71.9747 39.7691H71.9772C72.3805 39.7389 72.7756 39.8935 73.0514 40.1893C73.3199 40.4852 73.4044 40.9054 73.3 41.4947C73.2332 41.8416 73.097 42.1714 72.8997 42.4644C72.7312 42.7294 72.4905 42.9407 72.206 43.0736C71.9227 43.2049 71.613 43.2695 71.3009 43.2626C70.8859 43.2879 70.4797 43.135 70.1844 42.8423C69.9308 42.5465 69.8687 42.084 69.9731 41.4524C70.0402 40.9549 70.2967 40.5024 70.6892 40.1893ZM65.4477 47.9173L67.1882 38.0857H70.356L70.1074 39.3488C70.4504 38.9326 70.8985 38.6158 71.4053 38.4313C72.0495 38.1494 72.7436 37.9989 73.4467 37.9887C74.2673 37.9887 74.772 38.031 75.3837 38.3468C75.9665 38.6322 76.4183 39.1294 76.6468 39.7367C76.8869 40.3717 76.9378 41.0626 76.7935 41.7259C76.6214 42.8825 75.9823 43.9179 75.0256 44.5903C74.0584 45.2841 73.1931 45.4755 71.9523 45.4755C71.5762 45.4825 71.2009 45.4398 70.8359 45.3487C70.5835 45.2883 70.342 45.1893 70.1198 45.0553C69.9011 44.9062 69.703 44.729 69.5305 44.5282L68.9412 47.8974L65.4477 47.9173ZM129.681 39.6746C130.293 39.6746 130.586 40.0799 130.609 40.6692L130.604 40.6642C130.671 42.2854 128.776 43.7176 126.377 43.7176C126.65 42.5589 128.207 39.6746 129.681 39.6746Z" fill="white"/>
<defs>
<filter id="filter0_d" x="0" y="0" width="176" height="88" filterUnits="userSpaceOnUse" color-interpolation-filters="sRGB">
<feFlood flood-opacity="0" result="BackgroundImageFix"/>
<feColorMatrix in="SourceAlpha" type="matrix" values="0 0 0 0 0 0 0 0 0 0 0 0 0 0 0 0 0 0 127 0"/>
<feOffset dy="6"/>
<feGaussianBlur stdDeviation="4"/>
<feColorMatrix type="matrix" values="0 0 0 0 0.839216 0 0 0 0 0.215686 0 0 0 0 0.235294 0 0 0 0.17 0"/>
<feBlend mode="normal" in2="BackgroundImageFix" result="effect1_dropShadow"/>
<feBlend mode="normal" in="SourceGraphic" in2="effect1_dropShadow" result="shape"/>
</filter>
</defs>
</svg>
