<svg width="58" height="58" viewBox="0 0 58 58" fill="none" xmlns="http://www.w3.org/2000/svg">
<path d="M2.71875 2.71875H6.34375V17.2188H2.71875V2.71875Z" fill="#302A8F"/>
<path d="M50.75 11.7812V13.5938H19.9375V11.7812C19.9389 11.301 20.1304 10.8408 20.47 10.5012C20.8096 10.1616 21.2697 9.97018 21.75 9.96875H48.9375C49.4178 9.97018 49.8779 10.1616 50.2175 10.5012C50.5571 10.8408 50.7486 11.301 50.75 11.7812Z" fill="#302A8F"/>
<path d="M50.75 17.2188V26.2812C50.7486 26.7615 50.5571 27.2217 50.2175 27.5613C49.8779 27.9009 49.4178 28.0923 48.9375 28.0938H21.75C21.2697 28.0923 20.8096 27.9009 20.47 27.5613C20.1304 27.2217 19.9389 26.7615 19.9375 26.2812V17.2188H50.75Z" fill="#302A8F"/>
<path d="M43.9531 23.8434C43.7111 24.1226 43.3895 24.3212 43.0315 24.4125C42.6735 24.5038 42.2961 24.4836 41.9499 24.3544C41.6038 24.2253 41.3053 23.9934 41.0946 23.6899C40.8839 23.3864 40.771 23.0257 40.771 22.6562C40.771 22.2868 40.8839 21.9261 41.0946 21.6226C41.3053 21.3191 41.6038 21.0872 41.9499 20.9581C42.2961 20.8289 42.6735 20.8087 43.0315 20.9C43.3895 20.9913 43.7111 21.1899 43.9531 21.4691C44.1951 21.1899 44.5166 20.9913 44.8747 20.9C45.2327 20.8087 45.61 20.8289 45.9562 20.9581C46.3024 21.0872 46.6008 21.3191 46.8115 21.6226C47.0222 21.9261 47.1351 22.2868 47.1351 22.6562C47.1351 23.0257 47.0222 23.3864 46.8115 23.6899C46.6008 23.9934 46.3024 24.2253 45.9562 24.3544C45.61 24.4836 45.2327 24.5038 44.8747 24.4125C44.5166 24.3212 44.1951 24.1226 43.9531 23.8434Z" fill="#98FBEE"/>
<path d="M51.6562 31.7188H55.2812V46.2188H51.6562V31.7188Z" fill="#302A8F"/>
<path d="M19.9375 13.5938H50.75V17.2188H19.9375V13.5938Z" fill="#9881F3"/>
<path d="M24.5775 9.96875C25.0896 10.5025 25.3754 11.2137 25.375 11.9534C25.3789 12.5422 25.1947 13.1169 24.8494 13.5938C24.6243 13.938 24.3237 14.2262 23.9703 14.4366L19.9375 15.5603L17.2188 16.3125H11.7812L6.34375 13.5938V4.53125L15.4062 2.71875L25.375 4.53125L33.7578 9.425C33.9447 9.57312 34.0989 9.75824 34.2109 9.96875H24.5775Z" fill="#6554C0"/>
<path d="M29 55.2812C33.5046 55.2812 37.1562 51.6296 37.1562 47.125C37.1562 42.6204 33.5046 38.9688 29 38.9688C24.4954 38.9688 20.8438 42.6204 20.8438 47.125C20.8438 51.6296 24.4954 55.2812 29 55.2812Z" fill="#9881F3"/>
<path d="M32.8516 39.8297H32.6341C31.1742 39.0981 29.5278 38.8234 27.9095 39.0417C26.2912 39.2599 24.7764 39.9609 23.5625 41.0531V39.8387C23.5631 39.5673 23.6245 39.2995 23.7421 39.0548C23.8597 38.8102 24.0306 38.595 24.2422 38.425L32.625 33.5312L42.5938 31.7188L51.6562 33.5312V42.5938L46.2188 45.3125H40.7812L36.5853 44.1434L34.0297 43.4366C33.4328 43.0772 32.9852 42.5149 32.7689 41.8525C32.5525 41.1902 32.5819 40.4721 32.8516 39.8297Z" fill="#6554C0"/>
<path d="M22.6562 19.9375H26.2812V21.75H22.6562V19.9375Z" fill="#64C8BC"/>
<path d="M22.6562 23.5625H29V25.375H22.6562V23.5625Z" fill="#64C8BC"/>
<path d="M29.9062 46.2188V44.4062C30.1466 44.4062 30.3771 44.5017 30.5471 44.6717C30.717 44.8416 30.8125 45.0721 30.8125 45.3125H32.625C32.625 44.5914 32.3386 43.8999 31.8287 43.3901C31.3188 42.8802 30.6273 42.5938 29.9062 42.5938V41.6875H28.0938V42.5938C27.3727 42.5938 26.6812 42.8802 26.1713 43.3901C25.6614 43.8999 25.375 44.5914 25.375 45.3125C25.375 46.0336 25.6614 46.7251 26.1713 47.2349C26.6812 47.7448 27.3727 48.0312 28.0938 48.0312V49.8438C27.8534 49.8438 27.6229 49.7483 27.4529 49.5783C27.283 49.4084 27.1875 49.1779 27.1875 48.9375H25.375C25.375 49.6586 25.6614 50.3501 26.1713 50.8599C26.6812 51.3698 27.3727 51.6562 28.0938 51.6562V52.5625H29.9062V51.6562C30.6273 51.6562 31.3188 51.3698 31.8287 50.8599C32.3386 50.3501 32.625 49.6586 32.625 48.9375C32.625 48.2164 32.3386 47.5249 31.8287 47.0151C31.3188 46.5052 30.6273 46.2188 29.9062 46.2188ZM27.1875 45.3125C27.1875 45.0721 27.283 44.8416 27.4529 44.6717C27.6229 44.5017 27.8534 44.4062 28.0938 44.4062V46.2188C27.8534 46.2188 27.6229 46.1233 27.4529 45.9533C27.283 45.7834 27.1875 45.5529 27.1875 45.3125ZM29.9062 49.8438V48.0312C30.1466 48.0312 30.3771 48.1267 30.5471 48.2967C30.717 48.4666 30.8125 48.6971 30.8125 48.9375C30.8125 49.1779 30.717 49.4084 30.5471 49.5783C30.3771 49.7483 30.1466 49.8438 29.9062 49.8438Z" fill="#98FBEE"/>
</svg>
