<svg width="176" height="88" viewBox="0 0 176 88" fill="none" xmlns="http://www.w3.org/2000/svg">
<g filter="url(#filter0_d)">
<rect x="8" y="2" width="160" height="72" rx="8" fill="#0665B0"/>
</g>
<path fill-rule="evenodd" clip-rule="evenodd" d="M86.1168 44.1132C86.5712 43.4039 86.9701 42.7543 87.4053 42.1282C87.4768 42.0215 87.6997 41.9895 87.8533 41.9884C89.8875 41.9788 91.9216 41.9884 93.9557 41.982C94.9829 41.982 95.208 41.7538 95.2101 40.7276C95.2101 40.4855 95.2101 40.2444 95.2101 40.0023C95.2027 39.1639 94.9776 38.9356 94.1435 38.9356C92.4933 38.9356 90.8432 38.9612 89.1941 38.9186C88.6722 38.8996 88.1587 38.782 87.6805 38.5719C86.9477 38.2519 86.5339 37.6012 86.3525 36.8364C86.1284 35.9057 86.1222 34.9358 86.3344 34.0023C86.577 32.8613 87.5434 32.017 88.7067 31.9298C89.2987 31.8722 89.8992 31.8818 90.4965 31.8796C92.6441 31.8732 94.792 31.8732 96.9403 31.8796C97.0373 31.8796 97.1355 31.8892 97.3253 31.8978C97.0128 32.3938 96.6853 32.8215 96.4592 33.2951C96.1851 33.8551 95.7947 34.0076 95.1845 33.9938C93.3648 33.9511 91.544 33.9778 89.7232 33.981C88.9264 33.981 88.7077 34.1996 88.6992 34.99C88.6992 35.2748 88.6928 35.5596 88.6992 35.8434C88.7205 36.4759 88.9605 36.7212 89.5909 36.7244C91.1419 36.7319 92.6917 36.7244 94.2427 36.7308C94.5694 36.73 94.8958 36.751 95.2197 36.7938C96.5477 36.9794 97.4341 37.7538 97.6144 39.0818C97.7379 39.9664 97.7379 40.8639 97.6144 41.7484C97.3947 43.2418 96.3141 44.0791 94.6213 44.1047C91.8267 44.1442 89.0213 44.1132 86.1168 44.1132ZM102.475 33.9714V36.7692H109.164V38.8311H102.493V41.982H102.99C105.011 41.982 107.03 41.982 109.05 41.9767C109.321 41.9767 109.492 42.045 109.635 42.2892C109.986 42.8844 110.367 43.4626 110.77 44.0951H99.9963V43.6375C99.9963 39.8686 99.9945 36.0997 99.9909 32.3308C99.9909 32.0172 100.045 31.8786 100.405 31.8807C103.719 31.8935 107.033 31.8882 110.347 31.8892C110.444 31.8892 110.541 31.9052 110.723 31.9212C110.284 32.6071 109.885 33.2546 109.453 33.8796C109.393 33.9671 109.173 33.9703 109.027 33.9703C107.007 33.976 104.987 33.976 102.967 33.9703L102.475 33.9714ZM60.456 36.7127H67.2507V36.0151C67.2507 34.7778 67.2592 33.5404 67.2453 32.3031C67.2453 32.0012 67.3115 31.8679 67.6453 31.8764C68.3088 31.8999 68.9733 31.8828 69.6635 31.8828V44.0983H67.2592V38.8791H60.4773V44.0951H58.0635V31.9202H60.456V36.7127ZM71.0917 44.1228C71.1824 43.9095 71.2432 43.7538 71.3136 43.6034C73.1028 39.8267 74.8916 36.0489 76.68 32.27C76.8144 31.9852 76.9669 31.8636 77.288 31.8786C77.8555 31.9042 78.4272 31.869 78.9947 31.8978C79.1638 31.9149 79.3165 32.0069 79.4107 32.1484C81.2916 36.0844 83.1646 40.0261 85.0299 43.9735C85.0404 44.0212 85.0457 44.0698 85.0459 44.1186C84.184 44.1186 83.3275 44.126 82.472 44.1068C82.3931 44.1068 82.2949 43.9436 82.2459 43.838C81.9493 43.1916 81.6539 42.5452 81.3808 41.8892C81.2837 41.6556 81.1504 41.5778 80.9008 41.5788C79.0228 41.5881 77.1447 41.5881 75.2667 41.5788C75.016 41.5788 74.8837 41.6578 74.7867 41.8903C74.5125 42.5452 74.2256 43.197 73.9131 43.8348C73.8315 43.9817 73.6881 44.084 73.5227 44.1132C72.7408 44.1356 71.9579 44.1228 71.0917 44.1228ZM80.3067 39.4935L78.0763 34.4012L75.8608 39.4935H80.3067ZM56.5573 44.1154C53.8288 44.1154 51.1973 44.1634 48.568 44.1004C46.3867 44.0482 45.048 42.622 45.0171 40.4343C44.9943 38.7988 44.9943 37.1632 45.0171 35.5276C45.048 33.3943 46.3099 31.9948 48.4304 31.9244C51.0725 31.8359 53.7189 31.8903 56.3643 31.885C56.4218 31.8971 56.4777 31.9161 56.5307 31.9415C56.104 32.6135 55.6976 33.2748 55.2603 33.9148C55.1973 34.0076 54.9861 34.0332 54.8443 34.0332C53.1099 34.0407 51.3744 34.0332 49.64 34.0386C49.512 34.0386 49.384 34.0386 49.256 34.0386C48.0571 34.0663 47.5707 34.5388 47.56 35.7346C47.5465 37.213 47.5465 38.6917 47.56 40.1708C47.5707 41.3836 48.0603 41.8775 49.2837 41.8892C51.0608 41.9063 52.8389 41.9095 54.6171 41.8839C55.0299 41.8775 55.2571 42.0076 55.4587 42.3586C55.7733 42.9399 56.1563 43.4871 56.5573 44.1154ZM130.867 34.446H130.44C127.357 34.446 124.275 34.4396 121.192 34.4546C120.788 34.4546 120.647 34.3479 120.659 33.9319C120.686 32.8812 120.666 31.8295 120.668 30.7788C120.668 30.189 120.842 30.0066 121.415 30.0044C122.908 30.0044 124.402 29.997 125.895 30.0108C126.088 30.0098 126.276 30.0745 126.428 30.1943C127.88 31.5415 129.306 32.9047 130.738 34.2668C130.785 34.3236 130.828 34.3835 130.867 34.446ZM127.02 45.4124C127.012 45.2322 127 45.1095 127 44.9858C127 41.8988 127.006 38.8108 126.99 35.7239C126.99 35.3068 127.115 35.1906 127.524 35.1991C128.562 35.2247 129.601 35.2066 130.639 35.2087C131.24 35.2087 131.386 35.3431 131.386 35.9244C131.386 37.4466 131.396 38.9687 131.378 40.4908C131.374 40.7132 131.294 40.9276 131.153 41.0988C129.863 42.4855 128.553 43.8487 127.249 45.2183C127.191 45.277 127.125 45.3239 127.02 45.4124ZM116.084 41.5884H125.674C126.234 41.5884 126.234 41.5884 126.235 42.158C126.235 43.181 126.235 44.2039 126.235 45.2268C126.235 45.7858 126.051 45.9735 125.496 45.9735C123.976 45.9735 122.455 45.9799 120.935 45.9671C120.755 45.968 120.58 45.9075 120.439 45.7954C119.03 44.4738 117.635 43.1372 116.236 41.8028C116.181 41.7349 116.13 41.6633 116.084 41.5884ZM119.83 30.6348C119.839 30.8268 119.853 30.9634 119.853 31.0988C119.853 34.142 119.846 37.1852 119.863 40.2284C119.863 40.6551 119.745 40.7948 119.309 40.7831C118.258 40.7532 117.205 40.7767 116.152 40.7714C115.626 40.7714 115.474 40.6124 115.473 40.077C115.473 38.5548 115.465 37.0338 115.479 35.5116C115.477 35.3185 115.541 35.1304 115.66 34.9783C116.971 33.5767 118.299 32.189 119.623 30.8002C119.689 30.7412 119.758 30.686 119.83 30.6348Z" fill="white"/>
<defs>
<filter id="filter0_d" x="0" y="0" width="176" height="88" filterUnits="userSpaceOnUse" color-interpolation-filters="sRGB">
<feFlood flood-opacity="0" result="BackgroundImageFix"/>
<feColorMatrix in="SourceAlpha" type="matrix" values="0 0 0 0 0 0 0 0 0 0 0 0 0 0 0 0 0 0 127 0"/>
<feOffset dy="6"/>
<feGaussianBlur stdDeviation="4"/>
<feColorMatrix type="matrix" values="0 0 0 0 0.0235294 0 0 0 0 0.396078 0 0 0 0 0.690196 0 0 0 0.17 0"/>
<feBlend mode="normal" in2="BackgroundImageFix" result="effect1_dropShadow"/>
<feBlend mode="normal" in="SourceGraphic" in2="effect1_dropShadow" result="shape"/>
</filter>
</defs>
</svg>
