<svg width="176" height="88" viewBox="0 0 176 88" fill="none" xmlns="http://www.w3.org/2000/svg">
<g filter="url(#filter0_d)">
<rect x="8" y="2" width="160" height="72" rx="8" fill="#7BA228"/>
</g>
<path fill-rule="evenodd" clip-rule="evenodd" d="M53 43H57.5617L58.9245 38.1359H63.693L64.4977 35.2989H59.7267L60.3396 33.0854H65.1106L66 30H56.6524L53 43ZM63 43H67.42L70.0403 33.5028H65.6203L63 43ZM70.2796 32.596H65.862L66.58 30H71L70.2796 32.596ZM75.1637 42.7898H79.4543L83 30H78.6247L77.413 34.4849C77.0575 33.8127 76.1408 33.2628 74.9025 33.2628C73.4586 33.2628 72.2396 33.913 71.56 35.1643C70.6288 36.8458 70 39.2459 70 40.8566C70 42.3132 70.9263 43 72.3243 43C73.7222 43 74.6026 42.4647 75.4685 41.7315L75.1637 42.7898ZM76.1626 36.2226C75.7155 36.1842 75.301 36.4614 75.1613 36.8923C74.8396 37.6817 74.5494 38.4516 74.5494 39.2239C74.5445 39.4056 74.6147 39.5811 74.7433 39.7082C74.8718 39.8353 75.047 39.9025 75.2266 39.8936C75.4923 39.898 75.753 39.8204 75.974 39.6712L76.8592 36.599C76.6994 36.3688 76.4408 36.2291 76.1626 36.2226ZM86.4171 38.6046H92.535L92.5106 38.5946C92.7715 37.7363 92.9357 36.8505 93 35.9544C93 33.5759 91.216 33 88.4703 33C86.6839 33 84.7457 33.5485 83.6298 35.0444C82.7023 36.286 82 38.6295 82 40.0456C82 42.6161 84.0434 43 86.6692 43C88.6073 43 91.7666 42.0726 92.3148 39.3625H87.9735C87.7166 40.285 87.44 40.5343 86.8234 40.5343C86.6423 40.5525 86.4629 40.4856 86.3362 40.3526C86.2095 40.2196 86.1492 40.035 86.1724 39.8512C86.2056 39.4273 86.2878 39.0089 86.4171 38.6046ZM88.1057 35.4059C87.5575 35.4059 87.1782 35.7898 86.9384 36.7522H88.7566C88.82 36.5362 88.8602 36.3138 88.8765 36.089C88.8765 35.5654 88.5682 35.4084 88.1032 35.4084L88.1057 35.4059ZM92 43H96.4176L100 30H95.58L92 43ZM102.42 43H98L100.623 33.5028H105.043L102.42 43ZM100.862 32.5985H105.28L106 30H101.58L100.862 32.5985ZM113.764 34L114 35.3947H112.288L112.154 34H113.764ZM113.764 34L113.625 33.1781V33.1807H111.287L111.858 31H107.531L105.184 39.9538C105.063 40.3985 105.001 40.8594 105 41.3228C105 42.3322 105.488 43 106.762 43H110.618L111.256 40.5856H110.333C109.745 40.5856 109.578 40.4392 109.578 40.0077C109.591 39.7073 109.642 39.4103 109.728 39.1241L110.701 35.3947H112.288L113.05 43.3349C112.935 43.8819 112.746 44.1895 112.389 44.3409C112.031 44.4923 111.111 44.4776 110.797 44.463H110.741L110 47H113.155C115.018 47 115.932 46.1039 117.258 44.1187L124 34H119.266L116.757 39.1717L116.829 34H113.764Z" fill="white"/>
<defs>
<filter id="filter0_d" x="0" y="0" width="176" height="88" filterUnits="userSpaceOnUse" color-interpolation-filters="sRGB">
<feFlood flood-opacity="0" result="BackgroundImageFix"/>
<feColorMatrix in="SourceAlpha" type="matrix" values="0 0 0 0 0 0 0 0 0 0 0 0 0 0 0 0 0 0 127 0"/>
<feOffset dy="6"/>
<feGaussianBlur stdDeviation="4"/>
<feColorMatrix type="matrix" values="0 0 0 0 0.482353 0 0 0 0 0.635294 0 0 0 0 0.156863 0 0 0 0.17 0"/>
<feBlend mode="normal" in2="BackgroundImageFix" result="effect1_dropShadow"/>
<feBlend mode="normal" in="SourceGraphic" in2="effect1_dropShadow" result="shape"/>
</filter>
</defs>
</svg>
