<svg width="48" height="48" viewBox="0 0 48 48" fill="none" xmlns="http://www.w3.org/2000/svg">
<path d="M37.4236 28.4745C37.2154 28.4745 37.0071 28.3948 36.8484 28.2361C36.5303 27.918 36.5303 27.4039 36.8484 27.0858L41.7298 22.2044C42.0479 21.8863 42.5621 21.8863 42.8802 22.2044C43.1983 22.5225 43.1983 23.0367 42.8802 23.3548L37.9988 28.2361C37.8402 28.3948 37.6319 28.4745 37.4236 28.4745Z" fill="#4EDFA6"/>
<path d="M47.1858 28.4745C46.9776 28.4745 46.7693 28.3948 46.6107 28.2361L41.7293 23.3548C41.4112 23.0367 41.4112 22.5225 41.7293 22.2044C42.0474 21.8863 42.5616 21.8863 42.8797 22.2044L47.761 27.0858C48.0791 27.4039 48.0791 27.918 47.761 28.2361C47.6024 28.3948 47.3941 28.4745 47.1858 28.4745Z" fill="#4EDFA6"/>
<path d="M42.3048 46.3726C41.8549 46.3726 41.4912 46.0089 41.4912 45.559V22.7794C41.4912 22.3295 41.8549 21.9658 42.3048 21.9658C42.7547 21.9658 43.1183 22.3295 43.1183 22.7794V45.559C43.1183 46.0089 42.7547 46.3726 42.3048 46.3726Z" fill="#4EDFA6"/>
<path d="M0 1.62695V5.69475H1.62712H35.7966H37.4237V1.62695H0Z" fill="#2C2F38"/>
<path d="M2.44043 4.06787V42.9422C2.44043 44.3879 3.61196 45.5594 5.05765 45.5594H32.3656C33.8113 45.5594 34.9828 44.3879 34.9828 42.9422V4.06787H2.44043Z" fill="#630FB6"/>
<path d="M12.2031 13.0166H7.32178V19.5251H12.2031V13.0166Z" fill="#ECF0F1"/>
<path d="M12.2031 22.7798H7.32178V29.2883H12.2031V22.7798Z" fill="#ECF0F1"/>
<path d="M12.2031 32.542H7.32178V39.0505H12.2031V32.542Z" fill="#ECF0F1"/>
<path d="M28.4752 28.4745C28.0253 28.4745 27.6616 28.1109 27.6616 27.661V20.339C27.6616 19.8891 28.0253 19.5254 28.4752 19.5254C28.9251 19.5254 29.2887 19.8891 29.2887 20.339V27.661C29.2887 28.1109 28.9251 28.4745 28.4752 28.4745Z" fill="#8670FF"/>
<path d="M28.4752 39.0507C28.0253 39.0507 27.6616 38.6871 27.6616 38.2372V30.9151C27.6616 30.4652 28.0253 30.1016 28.4752 30.1016C28.9251 30.1016 29.2887 30.4652 29.2887 30.9151V38.2372C29.2887 38.6871 28.9251 39.0507 28.4752 39.0507Z" fill="#8670FF"/>
<path d="M24.4068 21.9661C23.9569 21.9661 23.5933 21.6024 23.5933 21.1525V20.3389C23.5933 19.8891 23.9569 19.5254 24.4068 19.5254C24.8567 19.5254 25.2204 19.8891 25.2204 20.3389V21.1525C25.2204 21.6024 24.8567 21.9661 24.4068 21.9661Z" fill="#8670FF"/>
<path d="M24.4068 26.8475C23.9569 26.8475 23.5933 26.4838 23.5933 26.0339V24.4068C23.5933 23.9569 23.9569 23.5933 24.4068 23.5933C24.8567 23.5933 25.2204 23.9569 25.2204 24.4068V26.0339C25.2204 26.4838 24.8567 26.8475 24.4068 26.8475Z" fill="#8670FF"/>
<path d="M24.4068 30.9148C23.9569 30.9148 23.5933 30.5511 23.5933 30.1012V29.2877C23.5933 28.8378 23.9569 28.4741 24.4068 28.4741C24.8567 28.4741 25.2204 28.8378 25.2204 29.2877V30.1012C25.2204 30.5511 24.8567 30.9148 24.4068 30.9148Z" fill="#8670FF"/>
<path d="M24.4068 35.7962C23.9569 35.7962 23.5933 35.4326 23.5933 34.9827V33.3556C23.5933 32.9057 23.9569 32.542 24.4068 32.542C24.8567 32.542 25.2204 32.9057 25.2204 33.3556V34.9827C25.2204 35.4326 24.8567 35.7962 24.4068 35.7962Z" fill="#8670FF"/>
<path d="M24.4068 39.0505C24.1953 39.0505 23.983 38.961 23.8292 38.8146C23.6819 38.66 23.5933 38.4485 23.5933 38.237C23.5933 38.0255 23.6819 37.8131 23.8292 37.6594C24.1383 37.3583 24.6834 37.3583 24.9844 37.6594C25.1309 37.8131 25.2204 38.0255 25.2204 38.237C25.2204 38.4566 25.1309 38.66 24.9844 38.8146C24.8299 38.961 24.6265 39.0505 24.4068 39.0505Z" fill="#8670FF"/>
<path d="M12.2031 4.06787H7.32178V9.76279H12.2031V4.06787Z" fill="#ECF0F1"/>
<path d="M21.1523 4.88135V15.2502C21.1523 15.814 21.6096 16.2712 22.1734 16.2712H29.894C30.4578 16.2712 30.9151 15.814 30.9151 15.2502V4.88135H21.1523Z" fill="#00797D"/>
<path d="M29.8936 17.0848H22.173C21.1617 17.0848 20.3384 16.2615 20.3384 15.2502V4.06787H31.7282V15.2502C31.7282 16.2615 30.9049 17.0848 29.8936 17.0848ZM21.9655 5.69499V15.2502C21.9655 15.365 22.0582 15.4577 22.173 15.4577H29.8936C30.0083 15.4577 30.1011 15.365 30.1011 15.2502V5.69499H21.9655Z" fill="#4EDFA6"/>
<path d="M29.894 16.2708C30.4578 16.2708 30.9151 15.8136 30.9151 15.2498V11.3895V9.15627C30.9151 8.59247 30.4578 8.13525 29.894 8.13525H27.6608H22.1734C21.6096 8.13525 21.1523 8.59247 21.1523 9.15627V10.3685C21.1523 10.9323 21.6096 11.3895 22.1734 11.3895H26.6398C27.2036 11.3895 27.6608 11.8467 27.6608 12.4105V15.2498C27.6608 15.8136 28.118 16.2708 28.6818 16.2708H29.894Z" fill="#00797D"/>
<path d="M29.8936 17.0845H28.6814C27.6702 17.0845 26.8469 16.2612 26.8469 15.2499V12.4106C26.8469 12.2959 26.7541 12.2031 26.6394 12.2031H22.173C21.1617 12.2031 20.3384 11.3798 20.3384 10.3686V9.15635C20.3384 8.1451 21.1617 7.32178 22.173 7.32178H29.8936C30.9049 7.32178 31.7282 8.1451 31.7282 9.15635V15.2499C31.7282 16.2612 30.9049 17.0845 29.8936 17.0845ZM22.173 8.9489C22.0582 8.9489 21.9655 9.04164 21.9655 9.15635V10.3686C21.9655 10.4833 22.0582 10.576 22.173 10.576H26.6394C27.6506 10.576 28.474 11.3993 28.474 12.4106V15.2499C28.474 15.3646 28.5667 15.4574 28.6814 15.4574H29.8936C30.0083 15.4574 30.1011 15.3646 30.1011 15.2499V9.15635C30.1011 9.04164 30.0083 8.9489 29.8936 8.9489H22.173Z" fill="#4EDFA6"/>
<path d="M24.4068 17.0846C23.9569 17.0846 23.5933 16.721 23.5933 16.2711V11.3897C23.5933 10.9398 23.9569 10.5762 24.4068 10.5762C24.8567 10.5762 25.2204 10.9398 25.2204 11.3897V16.2711C25.2204 16.721 24.8567 17.0846 24.4068 17.0846Z" fill="#4EDFA6"/>
<path d="M27.6612 8.94923C27.2113 8.94923 26.8477 8.58557 26.8477 8.13567V4.88143C26.8477 4.43153 27.2113 4.06787 27.6612 4.06787C28.1111 4.06787 28.4748 4.43153 28.4748 4.88143V8.13567C28.4748 8.58557 28.1111 8.94923 27.6612 8.94923Z" fill="#4EDFA6"/>
<path d="M24.4068 8.94923C23.9569 8.94923 23.5933 8.58557 23.5933 8.13567V4.88143C23.5933 4.43153 23.9569 4.06787 24.4068 4.06787C24.8567 4.06787 25.2204 4.43153 25.2204 4.88143V8.13567C25.2204 8.58557 24.8567 8.94923 24.4068 8.94923Z" fill="#4EDFA6"/>
</svg>
