<svg width="10" height="9" viewBox="0 0 10 9" fill="none" xmlns="http://www.w3.org/2000/svg">
<g clip-path="url(#clip0)">
<path d="M4.9776 0.11377C2.57634 0.11377 0.647461 2.04266 0.647461 4.44391C0.647461 6.84517 2.57635 8.77406 4.9776 8.77406C7.37886 8.77406 9.30775 6.84517 9.30775 4.44391C9.30775 2.04266 7.37886 0.11377 4.9776 0.11377V0.11377ZM4.9776 7.98676C3.00936 7.98676 1.43476 6.41216 1.43476 4.44391C1.43476 2.47567 3.00936 0.901066 4.9776 0.901066C6.94585 0.901066 8.52045 2.47567 8.52045 4.44391C8.52045 6.41216 6.94585 7.98676 4.9776 7.98676Z" fill="#F0C300"/>
<path d="M4.97666 4.05029C4.74047 4.05029 4.58301 4.20776 4.58301 4.44395V6.01855C4.58301 6.25474 4.74047 6.4122 4.97666 6.4122C5.21285 6.4122 5.37031 6.25474 5.37031 6.01855V4.44395C5.37031 4.20776 5.21285 4.05029 4.97666 4.05029Z" fill="#F0C300"/>
<path d="M4.7011 2.59368C4.62238 2.67241 4.58301 2.75115 4.58301 2.86924C4.58301 2.98734 4.62238 3.06606 4.7011 3.1448C4.77983 3.22352 4.85857 3.26289 4.97666 3.26289C5.09476 3.26289 5.17348 3.22352 5.25222 3.1448C5.33095 3.06607 5.37031 2.98734 5.37031 2.86924C5.37031 2.75115 5.33094 2.67242 5.25222 2.59368C5.09476 2.43622 4.85857 2.43622 4.70111 2.59368H4.7011Z" fill="#F0C300"/>
</g>
<defs>
<clipPath id="clip0">
<rect width="8.66029" height="8.66029" fill="white" transform="translate(0.647461 0.11377)"/>
</clipPath>
</defs>
</svg>
