<svg width="48" height="48" viewBox="0 0 48 48" fill="none" xmlns="http://www.w3.org/2000/svg">
<path d="M38.4008 33.9997C41.4935 33.9997 44.0007 31.4925 44.0007 28.3998C44.0007 25.307 41.4935 22.7998 38.4008 22.7998C35.308 22.7998 32.8008 25.307 32.8008 28.3998C32.8008 31.4925 35.308 33.9997 38.4008 33.9997Z" fill="#4A3D8C"/>
<path d="M24.7997 6H23.1997V21.2H24.7997V6Z" fill="#64C8BC"/>
<path d="M23.9993 5.99987H22.3993C19.3065 5.99987 16.7993 3.49271 16.7993 0.399902H18.3993C21.4922 0.399902 23.9993 2.90706 23.9993 5.99987Z" fill="#64C8BC"/>
<path d="M27.9993 24.3999H16.7993V27.5999H27.9993V24.3999Z" fill="#4A3D8C"/>
<path d="M29.6004 27.6001H18.4004V30.8001H29.6004V27.6001Z" fill="#6554C0"/>
<path d="M27.9993 30.7998H16.7993V33.9998H27.9993V30.7998Z" fill="#4A3D8C"/>
<path d="M29.6004 34H18.4004V37.2H29.6004V34Z" fill="#6554C0"/>
<path d="M29.6004 37.2002H18.4004V40.4002H29.6004V37.2002Z" fill="#4A3D8C"/>
<path d="M31.201 40.3999H20.001V43.5999H31.201V40.3999Z" fill="#6554C0"/>
<path d="M29.6004 43.6001H18.4004V46.8001H29.6004V43.6001Z" fill="#4A3D8C"/>
<path d="M14.3989 8.3999H15.999C20.4174 8.3999 23.9989 11.9815 23.9989 16.3999H22.3989C17.9806 16.3999 14.3989 12.8183 14.3989 8.3999Z" fill="#64C8BC"/>
<path d="M31.2 0.399902H29.6C26.5072 0.399902 24 2.90706 24 5.99987H25.6C28.6928 5.99987 31.2 3.49271 31.2 0.399902Z" fill="#64C8BC"/>
<path d="M25.6 16.3999H24C24 11.9814 27.5816 8.3999 32 8.3999H33.6C33.6 12.8183 30.0184 16.3999 25.6 16.3999Z" fill="#64C8BC"/>
<path d="M13.599 30.7998H2.39893V33.9998H13.599V30.7998Z" fill="#6554C0"/>
<path d="M13.599 34H2.39893V37.2H13.599V34Z" fill="#4A3D8C"/>
<path d="M15.1991 37.2002H3.99902V40.4002H15.1991V37.2002Z" fill="#6554C0"/>
<path d="M13.599 40.3999H2.39893V43.5999H13.599V40.3999Z" fill="#4A3D8C"/>
<path d="M15.1991 43.6001H3.99902V46.8001H15.1991V43.6001Z" fill="#6554C0"/>
<path d="M43.9984 34H32.7983V37.2H43.9984V34Z" fill="#6554C0"/>
<path d="M45.5999 37.2002H34.3999V40.4002H45.5999V37.2002Z" fill="#4A3D8C"/>
<path d="M45.5999 40.3999H34.3999V43.5999H45.5999V40.3999Z" fill="#6554C0"/>
<path d="M45.5999 43.6001H34.3999V46.8001H45.5999V43.6001Z" fill="#4A3D8C"/>
<path d="M38.3997 31.6001C40.167 31.6001 41.5996 30.1675 41.5996 28.4002C41.5996 26.6329 40.167 25.2002 38.3997 25.2002C36.6324 25.2002 35.1997 26.6329 35.1997 28.4002C35.1997 30.1675 36.6324 31.6001 38.3997 31.6001Z" fill="#6554C0"/>
<path d="M38.3994 31.6V29.9999C39.2834 29.9999 39.9994 29.284 39.9994 28.3999H41.5995C41.5994 30.1671 40.1666 31.6 38.3994 31.6Z" fill="#8670FF"/>
<path d="M36.8002 28.4002H35.2002C35.2002 26.633 36.633 25.2002 38.4002 25.2002V26.8002C37.5163 26.8002 36.8002 27.5162 36.8002 28.4002Z" fill="#8670FF"/>
<path d="M39.9998 8.39994C39.7278 6.75838 38.4414 5.47194 36.7998 5.19997C38.4414 4.928 39.7278 3.64156 39.9998 2C40.2717 3.64156 41.5582 4.928 43.1997 5.19997C41.5582 5.47194 40.2717 6.75838 39.9998 8.39994Z" fill="#D6A35F"/>
<path d="M7.99929 26C7.72732 24.3585 6.44088 23.072 4.79932 22.8001C6.44088 22.5281 7.72732 21.2417 7.99929 19.6001C8.27125 21.2417 9.55769 22.5281 11.1993 22.8001C9.55769 23.072 8.27135 24.3585 7.99929 26Z" fill="#6554C0"/>
<path d="M29.5994 21.2002H18.3994V24.4002H29.5994V21.2002Z" fill="#6554C0"/>
<path d="M47.9996 18.7999H45.5996V16.3999H43.9996V18.7999H41.5996V20.3999H43.9996V22.7999H45.5996V20.3999H47.9996V18.7999Z" fill="#6554C0"/>
<path d="M48 46H0V47.6H48V46Z" fill="#DBDBDB"/>
<path d="M15.9997 18.8002C13.3486 18.8002 11.1997 16.6513 11.1997 14.0002V13.2002H12.7997V14.0002C12.7997 15.7674 14.2325 17.2001 15.9997 17.2001V18.8002Z" fill="#DBDBDB"/>
</svg>
