<svg width="45" height="58" viewBox="0 0 45 58" fill="none" xmlns="http://www.w3.org/2000/svg">
<path d="M45 14L31 0H0V58H45V14Z" fill="#9881F3"/>
<path d="M31 0V14H45L31 0Z" fill="#302A8F"/>
<path d="M27 34H10C9.448 34 9 34.447 9 35C9 35.553 9.448 36 10 36H27C27.552 36 28 35.553 28 35C28 34.447 27.552 34 27 34Z" fill="#302A8F"/>
<path d="M38 30C38 29.447 37.552 29 37 29H30C29.448 29 29 29.447 29 30C29 30.553 29.448 31 30 31H37C37.552 31 38 30.553 38 30Z" fill="#302A8F"/>
<path d="M15 31H25C25.552 31 26 30.553 26 30C26 29.447 25.552 29 25 29H15C14.448 29 14 29.447 14 30C14 30.553 14.448 31 15 31Z" fill="#302A8F"/>
<path d="M10 31.0004C10.27 31.0004 10.52 30.8904 10.71 30.7104C10.89 30.5204 11 30.2604 11 30.0004C11 29.7394 10.89 29.4794 10.71 29.2904C10.34 28.9204 9.65 28.9304 9.29 29.2904C9.11 29.4794 9 29.7394 9 30.0004C9 30.2604 9.11 30.5204 9.29 30.7004C9.47 30.8904 9.73 31.0004 10 31.0004Z" fill="#302A8F"/>
<path d="M31.29 34.2902C31.11 34.4792 31 34.7292 31 35.0002C31 35.2702 31.1 35.5202 31.29 35.7102C31.48 35.8902 31.74 36.0002 32 36.0002C32.26 36.0002 32.52 35.8902 32.71 35.7102C32.9 35.5202 33 35.2702 33 35.0002C33 34.7392 32.89 34.4792 32.71 34.2902C32.33 33.9202 31.67 33.9202 31.29 34.2902Z" fill="#302A8F"/>
<path d="M36.29 34.2902C36.11 34.4792 36 34.7292 36 35.0002C36 35.2702 36.1 35.5202 36.29 35.7102C36.48 35.8902 36.74 36.0002 37 36.0002C37.26 36.0002 37.52 35.8902 37.71 35.7002C37.9 35.5102 38 35.2602 38 35.0002C38 34.7392 37.89 34.4792 37.71 34.2902C37.33 33.9202 36.67 33.9202 36.29 34.2902Z" fill="#302A8F"/>
<path d="M15.5249 39.1656C13.3339 40.3066 12.5969 42.4866 12.3289 44.7476C11.9149 44.4006 11.5009 44.0546 11.0879 43.7076C10.1069 42.8856 8.68393 44.2926 9.67393 45.1226C10.6089 45.9056 11.5449 46.6896 12.4799 47.4736C13.1419 48.0286 14.1559 47.6846 14.1869 46.7666C14.2599 44.5996 14.3639 42.0236 16.5349 40.8936C17.6789 40.2976 16.6669 38.5716 15.5249 39.1656Z" fill="#98FBEE"/>
<path d="M30.8628 44.2495C30.4398 43.6695 30.0038 43.1865 29.2308 43.1285C27.7738 43.0185 25.2728 45.1035 24.2388 43.2605C23.9768 42.7925 23.3288 42.6205 22.8708 42.9015C21.4548 43.7705 19.6038 45.0205 18.1148 43.4015C17.2398 42.4505 15.8288 43.8685 16.7008 44.8155C18.5718 46.8495 20.9848 46.2265 23.1078 45.0745C23.5558 45.5555 24.0918 45.8845 24.8048 46.1415C25.7138 46.4695 28.8918 44.9215 29.1378 45.2585C29.8888 46.2885 31.6258 45.2925 30.8628 44.2495Z" fill="#98FBEE"/>
<path d="M19.593 21.0919L17.082 19.8089C16.911 19.7209 16.803 19.5449 16.803 19.3519V18.5829C18.092 18.0279 18.833 16.9489 19.193 15.5999C19.736 15.4319 20.136 14.9289 20.136 14.3319V13.6649C20.136 13.1539 19.842 12.7139 19.418 12.4899C19.124 9.98293 17.467 8.96893 14.803 8.96893C14.677 8.96893 14.553 8.97393 14.432 8.98393C13.527 9.05593 12.611 8.88493 11.858 8.37793C11.545 8.16693 11.281 7.94293 11.096 7.70793C11.012 7.60093 10.842 7.66893 10.858 7.80493C10.885 8.03793 10.924 8.30993 10.983 8.60793C11.203 9.71493 11.072 9.55293 10.644 10.5969C10.407 11.1749 10.255 11.8149 10.184 12.4939C9.76198 12.7189 9.46998 13.1579 9.46998 13.6659V14.3329C9.46998 14.9299 9.86998 15.4329 10.413 15.6009C10.773 16.9499 11.514 18.0289 12.803 18.5839V19.3479C12.803 19.5429 12.692 19.7219 12.517 19.8079L9.94298 21.0759C9.50698 21.3139 9.19098 21.6949 9.00098 22.1349C10.637 23.3039 12.637 23.9999 14.802 23.9999C16.959 23.9999 18.952 23.3099 20.586 22.1479C20.382 21.7019 20.048 21.3199 19.593 21.0919Z" fill="#302A8F"/>
</svg>
