<svg width="368" height="154" viewBox="0 0 368 154" fill="none" xmlns="http://www.w3.org/2000/svg">
<path d="M232.2 30C232.067 30 231.96 29.96 231.88 29.88C231.8 29.7867 231.76 29.6733 231.76 29.54V16.48C231.76 16.3333 231.8 16.22 231.88 16.14C231.96 16.0467 232.067 16 232.2 16H237.26C238.767 16 239.947 16.3667 240.8 17.1C241.667 17.82 242.1 18.8733 242.1 20.26C242.1 21.6467 241.667 22.7 240.8 23.42C239.947 24.14 238.767 24.5 237.26 24.5H233.66V29.54C233.66 29.6733 233.613 29.7867 233.52 29.88C233.44 29.96 233.333 30 233.2 30H232.2ZM237.16 22.88C239.173 22.88 240.18 22.0067 240.18 20.26C240.18 19.4067 239.927 18.7533 239.42 18.3C238.927 17.8467 238.173 17.62 237.16 17.62H233.66V22.88H237.16ZM244.793 30C244.659 30 244.546 29.96 244.453 29.88C244.373 29.7867 244.333 29.6733 244.333 29.54V16.26C244.333 16.1133 244.373 16 244.453 15.92C244.546 15.84 244.659 15.8 244.793 15.8H245.673C245.806 15.8 245.913 15.8467 245.993 15.94C246.086 16.02 246.133 16.1267 246.133 16.26V29.54C246.133 29.6733 246.086 29.7867 245.993 29.88C245.913 29.96 245.806 30 245.673 30H244.793ZM252.017 30.2C251.363 30.2 250.757 30.0667 250.197 29.8C249.65 29.5333 249.21 29.1733 248.877 28.72C248.557 28.2533 248.397 27.74 248.397 27.18C248.397 26.3 248.757 25.58 249.477 25.02C250.197 24.46 251.177 24.0867 252.417 23.9L255.417 23.48V22.9C255.417 21.5267 254.623 20.84 253.037 20.84C252.423 20.84 251.93 20.9667 251.557 21.22C251.183 21.46 250.91 21.7467 250.737 22.08C250.683 22.2133 250.623 22.3067 250.557 22.36C250.503 22.4 250.423 22.42 250.317 22.42H249.537C249.417 22.42 249.31 22.38 249.217 22.3C249.137 22.2067 249.097 22.1 249.097 21.98C249.097 21.6733 249.237 21.32 249.517 20.92C249.81 20.5067 250.257 20.1533 250.857 19.86C251.457 19.5533 252.19 19.4 253.057 19.4C254.55 19.4 255.617 19.7467 256.257 20.44C256.91 21.1333 257.237 22 257.237 23.04V29.54C257.237 29.6733 257.19 29.7867 257.097 29.88C257.017 29.96 256.91 30 256.777 30H255.897C255.763 30 255.657 29.96 255.577 29.88C255.497 29.7867 255.457 29.6733 255.457 29.54V28.66C255.163 29.1 254.737 29.4667 254.177 29.76C253.617 30.0533 252.897 30.2 252.017 30.2ZM252.417 28.74C253.297 28.74 254.017 28.4533 254.577 27.88C255.137 27.3067 255.417 26.4733 255.417 25.38V24.82L253.077 25.16C252.117 25.2933 251.39 25.52 250.897 25.84C250.403 26.16 250.157 26.56 250.157 27.04C250.157 27.5867 250.377 28.0067 250.817 28.3C251.27 28.5933 251.803 28.74 252.417 28.74ZM260.593 30C260.459 30 260.346 29.96 260.253 29.88C260.173 29.7867 260.133 29.6733 260.133 29.54V20.06C260.133 19.9267 260.173 19.82 260.253 19.74C260.346 19.6467 260.459 19.6 260.593 19.6H261.453C261.599 19.6 261.713 19.64 261.793 19.72C261.873 19.8 261.913 19.9133 261.913 20.06V20.94C262.313 20.4467 262.773 20.0667 263.293 19.8C263.826 19.5333 264.486 19.4 265.273 19.4C266.553 19.4 267.546 19.8133 268.253 20.64C268.959 21.4533 269.313 22.5333 269.313 23.88V29.54C269.313 29.6733 269.266 29.7867 269.173 29.88C269.093 29.96 268.986 30 268.853 30H267.933C267.799 30 267.686 29.96 267.593 29.88C267.513 29.7867 267.473 29.6733 267.473 29.54V24C267.473 23.04 267.239 22.2933 266.773 21.76C266.306 21.2267 265.639 20.96 264.773 20.96C263.919 20.96 263.239 21.2333 262.733 21.78C262.226 22.3133 261.973 23.0533 261.973 24V29.54C261.973 29.6733 261.926 29.7867 261.833 29.88C261.753 29.96 261.646 30 261.513 30H260.593ZM275.763 30.2C274.843 30.2 274.063 30.0533 273.423 29.76C272.796 29.4533 272.33 29.1067 272.023 28.72C271.716 28.3333 271.563 28.0133 271.563 27.76C271.563 27.6267 271.61 27.5267 271.703 27.46C271.796 27.38 271.896 27.34 272.003 27.34H272.843C272.923 27.34 272.983 27.3533 273.023 27.38C273.076 27.4067 273.143 27.4667 273.223 27.56C273.53 27.9333 273.87 28.2267 274.243 28.44C274.63 28.6533 275.143 28.76 275.783 28.76C276.503 28.76 277.076 28.6267 277.503 28.36C277.943 28.0933 278.163 27.7067 278.163 27.2C278.163 26.8667 278.07 26.6 277.883 26.4C277.696 26.2 277.383 26.02 276.943 25.86C276.516 25.7 275.876 25.5267 275.023 25.34C273.863 25.0867 273.043 24.72 272.563 24.24C272.083 23.76 271.843 23.14 271.843 22.38C271.843 21.8867 271.99 21.4133 272.283 20.96C272.576 20.4933 273.01 20.12 273.583 19.84C274.17 19.5467 274.863 19.4 275.663 19.4C276.503 19.4 277.216 19.54 277.803 19.82C278.403 20.1 278.85 20.4267 279.143 20.8C279.45 21.1733 279.603 21.4867 279.603 21.74C279.603 21.86 279.556 21.96 279.463 22.04C279.383 22.12 279.283 22.16 279.163 22.16H278.403C278.216 22.16 278.083 22.0867 278.003 21.94C277.776 21.6867 277.583 21.4933 277.423 21.36C277.276 21.2133 277.056 21.0933 276.763 21C276.47 20.8933 276.103 20.84 275.663 20.84C275.01 20.84 274.51 20.98 274.163 21.26C273.816 21.5267 273.643 21.8867 273.643 22.34C273.643 22.62 273.716 22.86 273.863 23.06C274.01 23.2467 274.29 23.4267 274.703 23.6C275.116 23.76 275.73 23.9267 276.543 24.1C277.81 24.3667 278.703 24.7467 279.223 25.24C279.756 25.7333 280.023 26.3667 280.023 27.14C280.023 27.7133 279.856 28.2333 279.523 28.7C279.203 29.1667 278.716 29.5333 278.063 29.8C277.423 30.0667 276.656 30.2 275.763 30.2Z" fill="#5E6C84"/>
<circle cx="206" cy="23" r="12" fill="#E3FCF9"/>
<path d="M203.863 25.5834L201.083 22.8034L200.137 23.7434L203.863 27.47L211.863 19.47L210.923 18.53L203.863 25.5834Z" fill="#6554C0"/>
<path d="M232.2 78C232.067 78 231.96 77.96 231.88 77.88C231.8 77.7867 231.76 77.6733 231.76 77.54V64.48C231.76 64.3333 231.8 64.22 231.88 64.14C231.96 64.0467 232.067 64 232.2 64H233.14C233.287 64 233.4 64.0467 233.48 64.14C233.573 64.22 233.62 64.3333 233.62 64.48V69.46L239.04 64.32C239.253 64.1067 239.513 64 239.82 64H240.82C240.927 64 241.02 64.04 241.1 64.12C241.18 64.2 241.22 64.2933 241.22 64.4C241.22 64.5067 241.187 64.5933 241.12 64.66L234.88 70.7L241.54 77.32C241.607 77.4 241.64 77.4933 241.64 77.6C241.64 77.7067 241.6 77.8 241.52 77.88C241.44 77.96 241.347 78 241.24 78H240.2C240.013 78 239.867 77.9733 239.76 77.92C239.653 77.8533 239.54 77.7733 239.42 77.68L233.62 72.02V77.54C233.62 77.6733 233.573 77.7867 233.48 77.88C233.387 77.96 233.273 78 233.14 78H232.2ZM247.913 78C247.78 78 247.666 77.96 247.573 77.88C247.493 77.7867 247.453 77.6733 247.453 77.54V72.8L242.633 64.66C242.593 64.58 242.573 64.4933 242.573 64.4C242.573 64.2933 242.613 64.2 242.693 64.12C242.773 64.04 242.866 64 242.973 64H243.933C244.173 64 244.346 64.1133 244.453 64.34L248.413 70.88L252.353 64.34C252.486 64.1133 252.66 64 252.873 64H253.833C253.94 64 254.033 64.04 254.113 64.12C254.206 64.2 254.253 64.2933 254.253 64.4C254.253 64.4667 254.226 64.5533 254.173 64.66L249.353 72.8V77.54C249.353 77.6733 249.306 77.7867 249.213 77.88C249.133 77.96 249.02 78 248.873 78H247.913ZM260.998 78.2C259.225 78.2 257.872 77.72 256.938 76.76C256.018 75.7867 255.525 74.46 255.458 72.78C255.445 72.42 255.438 71.8333 255.438 71.02C255.438 70.1933 255.445 69.5933 255.458 69.22C255.525 67.54 256.018 66.22 256.938 65.26C257.872 64.2867 259.225 63.8 260.998 63.8C262.185 63.8 263.192 64.0133 264.018 64.44C264.845 64.8533 265.465 65.4 265.878 66.08C266.305 66.76 266.538 67.4867 266.578 68.26C266.578 68.38 266.532 68.48 266.438 68.56C266.358 68.6267 266.258 68.66 266.138 68.66H265.138C265.005 68.66 264.898 68.6267 264.818 68.56C264.738 68.4933 264.678 68.38 264.638 68.22C264.412 67.1933 263.998 66.4733 263.398 66.06C262.812 65.6467 262.012 65.44 260.998 65.44C258.678 65.44 257.472 66.7333 257.378 69.32C257.365 69.68 257.358 70.2333 257.358 70.98C257.358 71.7267 257.365 72.2933 257.378 72.68C257.472 75.2533 258.678 76.54 260.998 76.54C261.998 76.54 262.798 76.3333 263.398 75.92C263.998 75.5067 264.412 74.7933 264.638 73.78C264.678 73.62 264.738 73.5067 264.818 73.44C264.898 73.3733 265.005 73.34 265.138 73.34H266.138C266.258 73.34 266.358 73.38 266.438 73.46C266.532 73.5267 266.578 73.62 266.578 73.74C266.538 74.5133 266.305 75.24 265.878 75.92C265.465 76.6 264.845 77.1533 264.018 77.58C263.192 77.9933 262.185 78.2 260.998 78.2Z" fill="#C1C7D0"/>
<circle cx="206" cy="71" r="12" fill="#E3FCF9"/>
<path d="M236.22 126.2C235.127 126.2 234.173 126.027 233.36 125.68C232.56 125.333 231.947 124.88 231.52 124.32C231.107 123.747 230.887 123.133 230.86 122.48C230.86 122.373 230.9 122.28 230.98 122.2C231.06 122.12 231.16 122.08 231.28 122.08H232.26C232.5 122.08 232.667 122.213 232.76 122.48C232.88 123.04 233.22 123.527 233.78 123.94C234.353 124.34 235.167 124.54 236.22 124.54C237.353 124.54 238.2 124.34 238.76 123.94C239.32 123.54 239.6 122.987 239.6 122.28C239.6 121.827 239.46 121.453 239.18 121.16C238.913 120.867 238.507 120.613 237.96 120.4C237.427 120.173 236.62 119.9 235.54 119.58C234.513 119.287 233.693 118.973 233.08 118.64C232.48 118.307 232.027 117.9 231.72 117.42C231.413 116.927 231.26 116.307 231.26 115.56C231.26 114.84 231.453 114.2 231.84 113.64C232.227 113.067 232.787 112.62 233.52 112.3C234.253 111.967 235.12 111.8 236.12 111.8C237.16 111.8 238.047 111.987 238.78 112.36C239.527 112.72 240.093 113.18 240.48 113.74C240.867 114.287 241.073 114.84 241.1 115.4C241.1 115.52 241.06 115.62 240.98 115.7C240.9 115.78 240.8 115.82 240.68 115.82H239.68C239.573 115.82 239.473 115.787 239.38 115.72C239.287 115.653 239.22 115.553 239.18 115.42C239.1 114.847 238.78 114.373 238.22 114C237.66 113.627 236.96 113.44 236.12 113.44C235.213 113.44 234.493 113.62 233.96 113.98C233.427 114.327 233.16 114.847 233.16 115.54C233.16 116.007 233.28 116.387 233.52 116.68C233.773 116.973 234.153 117.233 234.66 117.46C235.18 117.687 235.933 117.947 236.92 118.24C238.053 118.56 238.94 118.88 239.58 119.2C240.233 119.52 240.72 119.92 241.04 120.4C241.36 120.867 241.52 121.473 241.52 122.22C241.52 123.473 241.04 124.453 240.08 125.16C239.133 125.853 237.847 126.2 236.22 126.2ZM247.902 126C245.836 126 244.802 124.833 244.802 122.5V117.14H243.222C243.089 117.14 242.982 117.1 242.902 117.02C242.822 116.94 242.782 116.833 242.782 116.7V116.06C242.782 115.927 242.822 115.82 242.902 115.74C242.982 115.647 243.089 115.6 243.222 115.6H244.802V112.26C244.802 112.127 244.842 112.02 244.922 111.94C245.002 111.847 245.109 111.8 245.242 111.8H246.122C246.256 111.8 246.362 111.847 246.442 111.94C246.536 112.02 246.582 112.127 246.582 112.26V115.6H249.062C249.196 115.6 249.302 115.647 249.382 115.74C249.476 115.82 249.522 115.927 249.522 116.06V116.7C249.522 116.833 249.476 116.94 249.382 117.02C249.302 117.1 249.196 117.14 249.062 117.14H246.582V122.36C246.582 123.04 246.689 123.553 246.902 123.9C247.129 124.247 247.509 124.42 248.042 124.42H249.262C249.396 124.42 249.502 124.467 249.582 124.56C249.662 124.64 249.702 124.747 249.702 124.88V125.54C249.702 125.673 249.662 125.787 249.582 125.88C249.502 125.96 249.396 126 249.262 126H247.902ZM254.536 126.2C253.883 126.2 253.276 126.067 252.716 125.8C252.17 125.533 251.73 125.173 251.396 124.72C251.076 124.253 250.916 123.74 250.916 123.18C250.916 122.3 251.276 121.58 251.996 121.02C252.716 120.46 253.696 120.087 254.936 119.9L257.936 119.48V118.9C257.936 117.527 257.143 116.84 255.556 116.84C254.943 116.84 254.45 116.967 254.076 117.22C253.703 117.46 253.43 117.747 253.256 118.08C253.203 118.213 253.143 118.307 253.076 118.36C253.023 118.4 252.943 118.42 252.836 118.42H252.056C251.936 118.42 251.83 118.38 251.736 118.3C251.656 118.207 251.616 118.1 251.616 117.98C251.616 117.673 251.756 117.32 252.036 116.92C252.33 116.507 252.776 116.153 253.376 115.86C253.976 115.553 254.71 115.4 255.576 115.4C257.07 115.4 258.136 115.747 258.776 116.44C259.43 117.133 259.756 118 259.756 119.04V125.54C259.756 125.673 259.71 125.787 259.616 125.88C259.536 125.96 259.43 126 259.296 126H258.416C258.283 126 258.176 125.96 258.096 125.88C258.016 125.787 257.976 125.673 257.976 125.54V124.66C257.683 125.1 257.256 125.467 256.696 125.76C256.136 126.053 255.416 126.2 254.536 126.2ZM254.936 124.74C255.816 124.74 256.536 124.453 257.096 123.88C257.656 123.307 257.936 122.473 257.936 121.38V120.82L255.596 121.16C254.636 121.293 253.91 121.52 253.416 121.84C252.923 122.16 252.676 122.56 252.676 123.04C252.676 123.587 252.896 124.007 253.336 124.3C253.79 124.593 254.323 124.74 254.936 124.74ZM263.112 126C262.979 126 262.866 125.96 262.772 125.88C262.692 125.787 262.652 125.673 262.652 125.54V116.08C262.652 115.947 262.692 115.833 262.772 115.74C262.866 115.647 262.979 115.6 263.112 115.6H263.952C264.099 115.6 264.212 115.647 264.292 115.74C264.386 115.82 264.432 115.933 264.432 116.08V116.96C264.979 116.053 265.906 115.6 267.212 115.6H267.992C268.139 115.6 268.252 115.64 268.332 115.72C268.412 115.8 268.452 115.913 268.452 116.06V116.8C268.452 116.933 268.412 117.047 268.332 117.14C268.252 117.22 268.139 117.26 267.992 117.26H266.852C266.119 117.26 265.539 117.473 265.112 117.9C264.699 118.327 264.492 118.907 264.492 119.64V125.54C264.492 125.673 264.446 125.787 264.352 125.88C264.259 125.96 264.146 126 264.012 126H263.112ZM274.172 126C272.105 126 271.072 124.833 271.072 122.5V117.14H269.492C269.359 117.14 269.252 117.1 269.172 117.02C269.092 116.94 269.052 116.833 269.052 116.7V116.06C269.052 115.927 269.092 115.82 269.172 115.74C269.252 115.647 269.359 115.6 269.492 115.6H271.072V112.26C271.072 112.127 271.112 112.02 271.192 111.94C271.272 111.847 271.379 111.8 271.512 111.8H272.392C272.525 111.8 272.632 111.847 272.712 111.94C272.805 112.02 272.852 112.127 272.852 112.26V115.6H275.332C275.465 115.6 275.572 115.647 275.652 115.74C275.745 115.82 275.792 115.927 275.792 116.06V116.7C275.792 116.833 275.745 116.94 275.652 117.02C275.572 117.1 275.465 117.14 275.332 117.14H272.852V122.36C272.852 123.04 272.959 123.553 273.172 123.9C273.399 124.247 273.779 124.42 274.312 124.42H275.532C275.665 124.42 275.772 124.467 275.852 124.56C275.932 124.64 275.972 124.747 275.972 124.88V125.54C275.972 125.673 275.932 125.787 275.852 125.88C275.772 125.96 275.665 126 275.532 126H274.172ZM283.548 126C283.414 126 283.308 125.96 283.228 125.88C283.148 125.787 283.108 125.673 283.108 125.54V112.46C283.108 112.327 283.148 112.22 283.228 112.14C283.308 112.047 283.414 112 283.548 112H284.548C284.694 112 284.808 112.04 284.888 112.12C284.968 112.2 285.008 112.313 285.008 112.46V125.54C285.008 125.673 284.961 125.787 284.868 125.88C284.788 125.96 284.681 126 284.548 126H283.548ZM288.737 126C288.604 126 288.491 125.96 288.397 125.88C288.317 125.787 288.277 125.673 288.277 125.54V116.06C288.277 115.927 288.317 115.82 288.397 115.74C288.491 115.647 288.604 115.6 288.737 115.6H289.597C289.744 115.6 289.857 115.64 289.937 115.72C290.017 115.8 290.057 115.913 290.057 116.06V116.94C290.457 116.447 290.917 116.067 291.437 115.8C291.971 115.533 292.631 115.4 293.417 115.4C294.697 115.4 295.691 115.813 296.397 116.64C297.104 117.453 297.457 118.533 297.457 119.88V125.54C297.457 125.673 297.411 125.787 297.317 125.88C297.237 125.96 297.131 126 296.997 126H296.077C295.944 126 295.831 125.96 295.737 125.88C295.657 125.787 295.617 125.673 295.617 125.54V120C295.617 119.04 295.384 118.293 294.917 117.76C294.451 117.227 293.784 116.96 292.917 116.96C292.064 116.96 291.384 117.233 290.877 117.78C290.371 118.313 290.117 119.053 290.117 120V125.54C290.117 125.673 290.071 125.787 289.977 125.88C289.897 125.96 289.791 126 289.657 126H288.737ZM303.675 126C303.328 126 303.081 125.833 302.935 125.5L299.215 116.22C299.201 116.18 299.195 116.113 299.195 116.02C299.195 115.9 299.235 115.8 299.315 115.72C299.395 115.64 299.488 115.6 299.595 115.6H300.515C300.728 115.6 300.888 115.707 300.995 115.92L304.075 123.9L307.155 115.92C307.181 115.84 307.235 115.767 307.315 115.7C307.408 115.633 307.515 115.6 307.635 115.6H308.555C308.661 115.6 308.755 115.64 308.835 115.72C308.915 115.8 308.955 115.9 308.955 116.02L308.915 116.22L305.215 125.5C305.068 125.833 304.821 126 304.475 126H303.675ZM314.839 126.2C313.479 126.2 312.392 125.78 311.579 124.94C310.765 124.087 310.319 122.927 310.239 121.46L310.219 120.78L310.239 120.12C310.319 118.68 310.765 117.533 311.579 116.68C312.392 115.827 313.479 115.4 314.839 115.4C316.305 115.4 317.439 115.867 318.239 116.8C319.052 117.733 319.459 119 319.459 120.6V120.96C319.459 121.093 319.412 121.207 319.319 121.3C319.239 121.38 319.132 121.42 318.999 121.42H312.059V121.6C312.099 122.467 312.365 123.207 312.859 123.82C313.352 124.433 314.005 124.74 314.819 124.74C315.445 124.74 315.952 124.62 316.339 124.38C316.739 124.127 317.039 123.867 317.239 123.6C317.359 123.44 317.452 123.347 317.519 123.32C317.585 123.28 317.699 123.26 317.859 123.26H318.739C318.859 123.26 318.959 123.293 319.039 123.36C319.132 123.427 319.179 123.513 319.179 123.62C319.179 123.913 318.999 124.267 318.639 124.68C318.279 125.093 317.765 125.453 317.099 125.76C316.445 126.053 315.692 126.2 314.839 126.2ZM317.639 120.06V120C317.639 119.067 317.385 118.307 316.879 117.72C316.372 117.133 315.692 116.84 314.839 116.84C313.972 116.84 313.292 117.133 312.799 117.72C312.305 118.307 312.059 119.067 312.059 120V120.06H317.639ZM325.451 126.2C324.531 126.2 323.751 126.053 323.111 125.76C322.484 125.453 322.017 125.107 321.711 124.72C321.404 124.333 321.251 124.013 321.251 123.76C321.251 123.627 321.297 123.527 321.391 123.46C321.484 123.38 321.584 123.34 321.691 123.34H322.531C322.611 123.34 322.671 123.353 322.711 123.38C322.764 123.407 322.831 123.467 322.911 123.56C323.217 123.933 323.557 124.227 323.931 124.44C324.317 124.653 324.831 124.76 325.471 124.76C326.191 124.76 326.764 124.627 327.191 124.36C327.631 124.093 327.851 123.707 327.851 123.2C327.851 122.867 327.757 122.6 327.571 122.4C327.384 122.2 327.071 122.02 326.631 121.86C326.204 121.7 325.564 121.527 324.711 121.34C323.551 121.087 322.731 120.72 322.251 120.24C321.771 119.76 321.531 119.14 321.531 118.38C321.531 117.887 321.677 117.413 321.971 116.96C322.264 116.493 322.697 116.12 323.271 115.84C323.857 115.547 324.551 115.4 325.351 115.4C326.191 115.4 326.904 115.54 327.491 115.82C328.091 116.1 328.537 116.427 328.831 116.8C329.137 117.173 329.291 117.487 329.291 117.74C329.291 117.86 329.244 117.96 329.151 118.04C329.071 118.12 328.971 118.16 328.851 118.16H328.091C327.904 118.16 327.771 118.087 327.691 117.94C327.464 117.687 327.271 117.493 327.111 117.36C326.964 117.213 326.744 117.093 326.451 117C326.157 116.893 325.791 116.84 325.351 116.84C324.697 116.84 324.197 116.98 323.851 117.26C323.504 117.527 323.331 117.887 323.331 118.34C323.331 118.62 323.404 118.86 323.551 119.06C323.697 119.247 323.977 119.427 324.391 119.6C324.804 119.76 325.417 119.927 326.231 120.1C327.497 120.367 328.391 120.747 328.911 121.24C329.444 121.733 329.711 122.367 329.711 123.14C329.711 123.713 329.544 124.233 329.211 124.7C328.891 125.167 328.404 125.533 327.751 125.8C327.111 126.067 326.344 126.2 325.451 126.2ZM336.027 126C333.961 126 332.927 124.833 332.927 122.5V117.14H331.347C331.214 117.14 331.107 117.1 331.027 117.02C330.947 116.94 330.907 116.833 330.907 116.7V116.06C330.907 115.927 330.947 115.82 331.027 115.74C331.107 115.647 331.214 115.6 331.347 115.6H332.927V112.26C332.927 112.127 332.967 112.02 333.047 111.94C333.127 111.847 333.234 111.8 333.367 111.8H334.247C334.381 111.8 334.487 111.847 334.567 111.94C334.661 112.02 334.707 112.127 334.707 112.26V115.6H337.187C337.321 115.6 337.427 115.647 337.507 115.74C337.601 115.82 337.647 115.927 337.647 116.06V116.7C337.647 116.833 337.601 116.94 337.507 117.02C337.427 117.1 337.321 117.14 337.187 117.14H334.707V122.36C334.707 123.04 334.814 123.553 335.027 123.9C335.254 124.247 335.634 124.42 336.167 124.42H337.387C337.521 124.42 337.627 124.467 337.707 124.56C337.787 124.64 337.827 124.747 337.827 124.88V125.54C337.827 125.673 337.787 125.787 337.707 125.88C337.627 125.96 337.521 126 337.387 126H336.027ZM340.081 113.64C339.948 113.64 339.835 113.6 339.741 113.52C339.661 113.427 339.621 113.313 339.621 113.18V112.14C339.621 112.007 339.661 111.893 339.741 111.8C339.835 111.707 339.948 111.66 340.081 111.66H341.261C341.395 111.66 341.508 111.707 341.601 111.8C341.695 111.893 341.741 112.007 341.741 112.14V113.18C341.741 113.313 341.695 113.427 341.601 113.52C341.508 113.6 341.395 113.64 341.261 113.64H340.081ZM340.241 126C340.108 126 339.995 125.96 339.901 125.88C339.821 125.787 339.781 125.673 339.781 125.54V116.06C339.781 115.927 339.821 115.82 339.901 115.74C339.995 115.647 340.108 115.6 340.241 115.6H341.121C341.255 115.6 341.361 115.647 341.441 115.74C341.535 115.82 341.581 115.927 341.581 116.06V125.54C341.581 125.673 341.535 125.787 341.441 125.88C341.361 125.96 341.255 126 341.121 126H340.241ZM345.046 126C344.913 126 344.799 125.96 344.706 125.88C344.626 125.787 344.586 125.673 344.586 125.54V116.06C344.586 115.927 344.626 115.82 344.706 115.74C344.799 115.647 344.913 115.6 345.046 115.6H345.906C346.053 115.6 346.166 115.64 346.246 115.72C346.326 115.8 346.366 115.913 346.366 116.06V116.94C346.766 116.447 347.226 116.067 347.746 115.8C348.279 115.533 348.939 115.4 349.726 115.4C351.006 115.4 351.999 115.813 352.706 116.64C353.413 117.453 353.766 118.533 353.766 119.88V125.54C353.766 125.673 353.719 125.787 353.626 125.88C353.546 125.96 353.439 126 353.306 126H352.386C352.253 126 352.139 125.96 352.046 125.88C351.966 125.787 351.926 125.673 351.926 125.54V120C351.926 119.04 351.693 118.293 351.226 117.76C350.759 117.227 350.093 116.96 349.226 116.96C348.373 116.96 347.693 117.233 347.186 117.78C346.679 118.313 346.426 119.053 346.426 120V125.54C346.426 125.673 346.379 125.787 346.286 125.88C346.206 125.96 346.099 126 345.966 126H345.046ZM360.876 130.4C359.77 130.4 358.883 130.213 358.216 129.84C357.55 129.467 357.076 129.04 356.796 128.56C356.53 128.08 356.396 127.667 356.396 127.32C356.396 127.2 356.443 127.093 356.536 127C356.63 126.92 356.736 126.88 356.856 126.88H357.736C357.856 126.88 357.956 126.907 358.036 126.96C358.116 127.027 358.183 127.14 358.236 127.3C358.61 128.367 359.456 128.9 360.776 128.9C361.776 128.9 362.516 128.687 362.996 128.26C363.476 127.833 363.716 127.08 363.716 126V124.62C362.943 125.607 361.863 126.1 360.476 126.1C359.063 126.1 358.003 125.647 357.296 124.74C356.603 123.833 356.236 122.687 356.196 121.3L356.176 120.74L356.196 120.2C356.236 118.827 356.603 117.687 357.296 116.78C358.003 115.86 359.063 115.4 360.476 115.4C361.876 115.4 362.97 115.913 363.756 116.94V116.08C363.756 115.947 363.796 115.833 363.876 115.74C363.97 115.647 364.083 115.6 364.216 115.6H365.076C365.21 115.6 365.316 115.647 365.396 115.74C365.49 115.833 365.536 115.947 365.536 116.08V125.78C365.536 128.86 363.983 130.4 360.876 130.4ZM360.836 124.54C361.77 124.54 362.47 124.24 362.936 123.64C363.416 123.027 363.676 122.293 363.716 121.44C363.73 121.32 363.736 121.087 363.736 120.74C363.736 120.407 363.73 120.18 363.716 120.06C363.676 119.207 363.416 118.48 362.936 117.88C362.47 117.267 361.77 116.96 360.836 116.96C359.876 116.96 359.176 117.267 358.736 117.88C358.31 118.48 358.076 119.26 358.036 120.22L358.016 120.74L358.036 121.28C358.076 122.24 358.31 123.027 358.736 123.64C359.176 124.24 359.876 124.54 360.836 124.54Z" fill="#C1C7D0"/>
<circle cx="206" cy="119" r="12" fill="#E3FCF9"/>
<path d="M65.04 72C64.9067 72 64.7933 71.96 64.7 71.88C64.62 71.7867 64.58 71.6733 64.58 71.54V68.62H58.08C57.9467 68.62 57.8333 68.58 57.74 68.5C57.66 68.4067 57.62 68.2933 57.62 68.16V67.42C57.62 67.2333 57.6933 67.0333 57.84 66.82L63.86 58.34C63.9267 58.2333 64.0267 58.1533 64.16 58.1C64.2933 58.0333 64.44 58 64.6 58H65.96C66.1067 58 66.22 58.04 66.3 58.12C66.38 58.2 66.42 58.3133 66.42 58.46V66.94H68.24C68.3733 66.94 68.48 66.9867 68.56 67.08C68.6533 67.16 68.7 67.2667 68.7 67.4V68.16C68.7 68.2933 68.6533 68.4067 68.56 68.5C68.48 68.58 68.3733 68.62 68.24 68.62H66.42V71.54C66.42 71.6733 66.3733 71.7867 66.28 71.88C66.2 71.96 66.0933 72 65.96 72H65.04ZM59.7 66.98H64.6V60.02L59.7 66.98ZM75.1833 72.2C74.1833 72.2 73.3166 72.02 72.5833 71.66C71.8499 71.3 71.2899 70.8333 70.9033 70.26C70.5166 69.6733 70.3099 69.0467 70.2833 68.38V68.34C70.2833 68.2333 70.3233 68.1467 70.4033 68.08C70.4833 68.0133 70.5766 67.98 70.6833 67.98H71.6633C71.9433 67.98 72.1233 68.1267 72.2033 68.42C72.4033 69.14 72.7699 69.68 73.3033 70.04C73.8499 70.3867 74.4766 70.56 75.1833 70.56C76.0899 70.56 76.8433 70.2867 77.4433 69.74C78.0433 69.18 78.3433 68.4133 78.3433 67.44C78.3433 66.5467 78.0433 65.84 77.4433 65.32C76.8433 64.7867 76.0899 64.52 75.1833 64.52C74.7033 64.52 74.3166 64.58 74.0233 64.7C73.7299 64.82 73.4299 64.9933 73.1233 65.22C72.9499 65.3533 72.8033 65.4533 72.6833 65.52C72.5766 65.5733 72.4566 65.6 72.3233 65.6H71.3633C71.2433 65.6 71.1366 65.56 71.0433 65.48C70.9499 65.3867 70.9099 65.28 70.9233 65.16L71.5433 58.5C71.5833 58.1667 71.7499 58 72.0433 58H78.9633C79.1099 58 79.2233 58.04 79.3033 58.12C79.3833 58.2 79.4233 58.3133 79.4233 58.46V59.2C79.4233 59.3333 79.3766 59.44 79.2833 59.52C79.2033 59.6 79.0966 59.64 78.9633 59.64H73.2033L72.8433 63.66C73.4833 63.2067 74.3433 62.98 75.4233 62.98C76.3166 62.98 77.1299 63.16 77.8633 63.52C78.5966 63.8667 79.1766 64.38 79.6033 65.06C80.0433 65.74 80.2633 66.5467 80.2633 67.48C80.2633 68.4667 80.0433 69.32 79.6033 70.04C79.1766 70.7467 78.5766 71.2867 77.8033 71.66C77.0433 72.02 76.1699 72.2 75.1833 72.2ZM85.0592 65.02C84.1926 65.02 83.5059 64.7933 82.9992 64.34C82.5059 63.8733 82.2392 63.2333 82.1992 62.42C82.1859 62.1933 82.1792 61.9 82.1792 61.54C82.1792 61.1533 82.1859 60.84 82.1992 60.6C82.2392 59.7733 82.4992 59.12 82.9792 58.64C83.4592 58.1467 84.1526 57.9 85.0592 57.9C85.9659 57.9 86.6592 58.1467 87.1392 58.64C87.6326 59.12 87.8992 59.7733 87.9392 60.6C87.9659 61.08 87.9792 61.3933 87.9792 61.54C87.9792 61.6733 87.9659 61.9667 87.9392 62.42C87.8992 63.2333 87.6259 63.8733 87.1192 64.34C86.6126 64.7933 85.9259 65.02 85.0592 65.02ZM83.3792 72C83.2592 72 83.1592 71.9667 83.0792 71.9C82.9992 71.82 82.9592 71.72 82.9592 71.6C82.9592 71.52 82.9859 71.4467 83.0392 71.38L92.9192 58.38C93.0259 58.2333 93.1192 58.1333 93.1992 58.08C93.2926 58.0267 93.4192 58 93.5792 58H94.2192C94.3392 58 94.4326 58.04 94.4992 58.12C94.5792 58.1867 94.6192 58.28 94.6192 58.4C94.6192 58.48 94.5926 58.5533 94.5392 58.62L84.6792 71.62C84.5726 71.7533 84.4726 71.8533 84.3792 71.92C84.2992 71.9733 84.1792 72 84.0192 72H83.3792ZM85.0592 63.8C85.5392 63.8 85.8926 63.66 86.1192 63.38C86.3459 63.1 86.4792 62.7533 86.5192 62.34C86.5459 61.86 86.5592 61.58 86.5592 61.5C86.5592 61.38 86.5459 61.1067 86.5192 60.68C86.4926 60.2667 86.3592 59.92 86.1192 59.64C85.8926 59.3467 85.5392 59.2 85.0592 59.2C84.5792 59.2 84.2259 59.3467 83.9992 59.64C83.7726 59.92 83.6459 60.2667 83.6192 60.68C83.6059 60.8933 83.5992 61.1667 83.5992 61.5C83.5992 61.82 83.6059 62.1 83.6192 62.34C83.6592 62.74 83.7859 63.0867 83.9992 63.38C84.2259 63.66 84.5792 63.8 85.0592 63.8ZM92.4992 72.12C91.6326 72.12 90.9459 71.8733 90.4392 71.38C89.9459 70.8867 89.6792 70.2333 89.6392 69.42C89.6126 69.02 89.5992 68.7533 89.5992 68.62C89.5992 68.4867 89.6126 68.1533 89.6392 67.62C89.6792 66.7933 89.9392 66.14 90.4192 65.66C90.8992 65.1667 91.5926 64.92 92.4992 64.92C93.4059 64.92 94.0992 65.1667 94.5792 65.66C95.0726 66.14 95.3392 66.7933 95.3792 67.62C95.4059 68.1 95.4192 68.4067 95.4192 68.54C95.4192 68.6733 95.4059 68.9667 95.3792 69.42C95.3392 70.2333 95.0659 70.8867 94.5592 71.38C94.0526 71.8733 93.3659 72.12 92.4992 72.12ZM92.4992 70.82C92.9792 70.82 93.3326 70.68 93.5592 70.4C93.7859 70.12 93.9192 69.7733 93.9592 69.36C93.9859 68.88 93.9992 68.5933 93.9992 68.5C93.9992 68.3933 93.9859 68.1267 93.9592 67.7C93.9326 67.2867 93.7992 66.94 93.5592 66.66C93.3326 66.3667 92.9792 66.22 92.4992 66.22C92.0192 66.22 91.6659 66.3667 91.4392 66.66C91.2126 66.94 91.0859 67.2867 91.0592 67.7C91.0459 67.9133 91.0392 68.18 91.0392 68.5C91.0392 68.8333 91.0459 69.12 91.0592 69.36C91.0859 69.76 91.2126 70.1067 91.4392 70.4C91.6659 70.68 92.0192 70.82 92.4992 70.82Z" fill="#64C8BC"/>
<path d="M38.76 96.2C36.9867 96.2 35.6333 95.72 34.7 94.76C33.78 93.7867 33.2867 92.46 33.22 90.78C33.2067 90.42 33.2 89.8333 33.2 89.02C33.2 88.1933 33.2067 87.5933 33.22 87.22C33.2867 85.54 33.78 84.22 34.7 83.26C35.6333 82.2867 36.9867 81.8 38.76 81.8C39.9467 81.8 40.9533 82.0133 41.78 82.44C42.6067 82.8533 43.2267 83.4 43.64 84.08C44.0667 84.76 44.3 85.4867 44.34 86.26C44.34 86.38 44.2933 86.48 44.2 86.56C44.12 86.6267 44.02 86.66 43.9 86.66H42.9C42.7667 86.66 42.66 86.6267 42.58 86.56C42.5 86.4933 42.44 86.38 42.4 86.22C42.1733 85.1933 41.76 84.4733 41.16 84.06C40.5733 83.6467 39.7733 83.44 38.76 83.44C36.44 83.44 35.2333 84.7333 35.14 87.32C35.1267 87.68 35.12 88.2333 35.12 88.98C35.12 89.7267 35.1267 90.2933 35.14 90.68C35.2333 93.2533 36.44 94.54 38.76 94.54C39.76 94.54 40.56 94.3333 41.16 93.92C41.76 93.5067 42.1733 92.7933 42.4 91.78C42.44 91.62 42.5 91.5067 42.58 91.44C42.66 91.3733 42.7667 91.34 42.9 91.34H43.9C44.02 91.34 44.12 91.38 44.2 91.46C44.2933 91.5267 44.34 91.62 44.34 91.74C44.3 92.5133 44.0667 93.24 43.64 93.92C43.2267 94.6 42.6067 95.1533 41.78 95.58C40.9533 95.9933 39.9467 96.2 38.76 96.2ZM51.0208 96.2C49.5541 96.2 48.4208 95.7867 47.6208 94.96C46.8341 94.1333 46.4141 93.0333 46.3608 91.66L46.3408 90.8L46.3608 89.94C46.4141 88.5667 46.8408 87.4667 47.6408 86.64C48.4541 85.8133 49.5808 85.4 51.0208 85.4C52.4608 85.4 53.5808 85.8133 54.3808 86.64C55.1941 87.4667 55.6274 88.5667 55.6808 89.94C55.7074 90.2333 55.7208 90.52 55.7208 90.8C55.7208 91.08 55.7074 91.3667 55.6808 91.66C55.6274 93.0333 55.2008 94.1333 54.4008 94.96C53.6141 95.7867 52.4874 96.2 51.0208 96.2ZM51.0208 94.7C51.8741 94.7 52.5474 94.4333 53.0408 93.9C53.5474 93.3533 53.8208 92.5733 53.8608 91.56C53.8741 91.4267 53.8808 91.1733 53.8808 90.8C53.8808 90.4267 53.8741 90.1733 53.8608 90.04C53.8208 89.0267 53.5474 88.2533 53.0408 87.72C52.5474 87.1733 51.8741 86.9 51.0208 86.9C50.1674 86.9 49.4874 87.1733 48.9808 87.72C48.4874 88.2533 48.2208 89.0267 48.1808 90.04L48.1608 90.8L48.1808 91.56C48.2208 92.5733 48.4874 93.3533 48.9808 93.9C49.4874 94.4333 50.1674 94.7 51.0208 94.7ZM58.7061 96C58.5728 96 58.4594 95.96 58.3661 95.88C58.2861 95.7867 58.2461 95.6733 58.2461 95.54V86.06C58.2461 85.9267 58.2861 85.82 58.3661 85.74C58.4594 85.6467 58.5728 85.6 58.7061 85.6H59.5461C59.6794 85.6 59.7861 85.6467 59.8661 85.74C59.9461 85.82 59.9861 85.9267 59.9861 86.06V86.74C60.7061 85.8467 61.6794 85.4 62.9061 85.4C64.3728 85.4 65.4128 86.0133 66.0261 87.24C66.3461 86.68 66.7994 86.2333 67.3861 85.9C67.9861 85.5667 68.6528 85.4 69.3861 85.4C70.4794 85.4 71.3728 85.7733 72.0661 86.52C72.7594 87.2667 73.1061 88.3467 73.1061 89.76V95.54C73.1061 95.6733 73.0594 95.7867 72.9661 95.88C72.8861 95.96 72.7794 96 72.6461 96H71.7861C71.6528 96 71.5394 95.96 71.4461 95.88C71.3661 95.7867 71.3261 95.6733 71.3261 95.54V89.94C71.3261 88.8733 71.1061 88.1133 70.6661 87.66C70.2261 87.1933 69.6461 86.96 68.9261 86.96C68.2861 86.96 67.7328 87.2 67.2661 87.68C66.8128 88.1467 66.5861 88.9 66.5861 89.94V95.54C66.5861 95.6733 66.5394 95.7867 66.4461 95.88C66.3661 95.96 66.2594 96 66.1261 96H65.2461C65.1128 96 64.9994 95.96 64.9061 95.88C64.8261 95.7867 64.7861 95.6733 64.7861 95.54V89.94C64.7861 88.8867 64.5528 88.1267 64.0861 87.66C63.6328 87.1933 63.0661 86.96 62.3861 86.96C61.7461 86.96 61.1928 87.1933 60.7261 87.66C60.2728 88.1267 60.0461 88.88 60.0461 89.92V95.54C60.0461 95.6733 59.9994 95.7867 59.9061 95.88C59.8261 95.96 59.7194 96 59.5861 96H58.7061ZM76.48 99.8C76.3467 99.8 76.2333 99.76 76.14 99.68C76.06 99.6 76.02 99.4867 76.02 99.34V86.06C76.02 85.9133 76.06 85.8 76.14 85.72C76.2333 85.64 76.3467 85.6 76.48 85.6H77.32C77.4667 85.6 77.58 85.64 77.66 85.72C77.74 85.8 77.78 85.9133 77.78 86.06V86.94C78.5533 85.9133 79.6533 85.4 81.08 85.4C82.48 85.4 83.5267 85.8467 84.22 86.74C84.9267 87.62 85.3 88.7467 85.34 90.12C85.3533 90.2667 85.36 90.4933 85.36 90.8C85.36 91.1067 85.3533 91.3333 85.34 91.48C85.3 92.84 84.9267 93.9667 84.22 94.86C83.5267 95.7533 82.48 96.2 81.08 96.2C79.6533 96.2 78.5733 95.6933 77.84 94.68V99.34C77.84 99.4733 77.7933 99.58 77.7 99.66C77.62 99.7533 77.5133 99.8 77.38 99.8H76.48ZM80.7 94.64C81.66 94.64 82.36 94.34 82.8 93.74C83.24 93.14 83.48 92.3533 83.52 91.38C83.5333 91.2467 83.54 91.0533 83.54 90.8C83.54 88.24 82.5933 86.96 80.7 86.96C79.7667 86.96 79.06 87.2733 78.58 87.9C78.1133 88.5133 77.8667 89.24 77.84 90.08C77.8267 90.2267 77.82 90.4867 77.82 90.86C77.82 91.2333 77.8267 91.4933 77.84 91.64C77.8667 92.4533 78.12 93.16 78.6 93.76C79.0933 94.3467 79.7933 94.64 80.7 94.64ZM88.355 96C88.2217 96 88.1083 95.96 88.015 95.88C87.935 95.7867 87.895 95.6733 87.895 95.54V82.26C87.895 82.1133 87.935 82 88.015 81.92C88.1083 81.84 88.2217 81.8 88.355 81.8H89.235C89.3683 81.8 89.475 81.8467 89.555 81.94C89.6483 82.02 89.695 82.1267 89.695 82.26V95.54C89.695 95.6733 89.6483 95.7867 89.555 95.88C89.475 95.96 89.3683 96 89.235 96H88.355ZM96.8192 96.2C95.4592 96.2 94.3726 95.78 93.5592 94.94C92.7459 94.0867 92.2992 92.9267 92.2192 91.46L92.1992 90.78L92.2192 90.12C92.2992 88.68 92.7459 87.5333 93.5592 86.68C94.3726 85.8267 95.4592 85.4 96.8192 85.4C98.2859 85.4 99.4192 85.8667 100.219 86.8C101.033 87.7333 101.439 89 101.439 90.6V90.96C101.439 91.0933 101.393 91.2067 101.299 91.3C101.219 91.38 101.113 91.42 100.979 91.42H94.0392V91.6C94.0792 92.4667 94.3459 93.2067 94.8392 93.82C95.3326 94.4333 95.9859 94.74 96.7992 94.74C97.4259 94.74 97.9326 94.62 98.3192 94.38C98.7192 94.1267 99.0192 93.8667 99.2192 93.6C99.3392 93.44 99.4326 93.3467 99.4992 93.32C99.5659 93.28 99.6792 93.26 99.8392 93.26H100.719C100.839 93.26 100.939 93.2933 101.019 93.36C101.113 93.4267 101.159 93.5133 101.159 93.62C101.159 93.9133 100.979 94.2667 100.619 94.68C100.259 95.0933 99.7459 95.4533 99.0792 95.76C98.4259 96.0533 97.6726 96.2 96.8192 96.2ZM99.6192 90.06V90C99.6192 89.0667 99.3659 88.3067 98.8592 87.72C98.3526 87.1333 97.6726 86.84 96.8192 86.84C95.9526 86.84 95.2726 87.1333 94.7792 87.72C94.2859 88.3067 94.0392 89.0667 94.0392 90V90.06H99.6192ZM107.813 96C105.746 96 104.713 94.8333 104.713 92.5V87.14H103.133C102.999 87.14 102.893 87.1 102.813 87.02C102.733 86.94 102.693 86.8333 102.693 86.7V86.06C102.693 85.9267 102.733 85.82 102.813 85.74C102.893 85.6467 102.999 85.6 103.133 85.6H104.713V82.26C104.713 82.1267 104.753 82.02 104.833 81.94C104.913 81.8467 105.019 81.8 105.153 81.8H106.033C106.166 81.8 106.273 81.8467 106.353 81.94C106.446 82.02 106.493 82.1267 106.493 82.26V85.6H108.973C109.106 85.6 109.213 85.6467 109.293 85.74C109.386 85.82 109.433 85.9267 109.433 86.06V86.7C109.433 86.8333 109.386 86.94 109.293 87.02C109.213 87.1 109.106 87.14 108.973 87.14H106.493V92.36C106.493 93.04 106.599 93.5533 106.813 93.9C107.039 94.2467 107.419 94.42 107.953 94.42H109.173C109.306 94.42 109.413 94.4667 109.493 94.56C109.573 94.64 109.613 94.7467 109.613 94.88V95.54C109.613 95.6733 109.573 95.7867 109.493 95.88C109.413 95.96 109.306 96 109.173 96H107.813ZM115.686 96.2C114.326 96.2 113.24 95.78 112.426 94.94C111.613 94.0867 111.166 92.9267 111.086 91.46L111.066 90.78L111.086 90.12C111.166 88.68 111.613 87.5333 112.426 86.68C113.24 85.8267 114.326 85.4 115.686 85.4C117.153 85.4 118.286 85.8667 119.086 86.8C119.9 87.7333 120.306 89 120.306 90.6V90.96C120.306 91.0933 120.26 91.2067 120.166 91.3C120.086 91.38 119.98 91.42 119.846 91.42H112.906V91.6C112.946 92.4667 113.213 93.2067 113.706 93.82C114.2 94.4333 114.853 94.74 115.666 94.74C116.293 94.74 116.8 94.62 117.186 94.38C117.586 94.1267 117.886 93.8667 118.086 93.6C118.206 93.44 118.3 93.3467 118.366 93.32C118.433 93.28 118.546 93.26 118.706 93.26H119.586C119.706 93.26 119.806 93.2933 119.886 93.36C119.98 93.4267 120.026 93.5133 120.026 93.62C120.026 93.9133 119.846 94.2667 119.486 94.68C119.126 95.0933 118.613 95.4533 117.946 95.76C117.293 96.0533 116.54 96.2 115.686 96.2ZM118.486 90.06V90C118.486 89.0667 118.233 88.3067 117.726 87.72C117.22 87.1333 116.54 86.84 115.686 86.84C114.82 86.84 114.14 87.1333 113.646 87.72C113.153 88.3067 112.906 89.0667 112.906 90V90.06H118.486Z" fill="#64C8BC"/>
<path fill-rule="evenodd" clip-rule="evenodd" d="M77 154C119.526 154 154 119.526 154 77C154 34.4741 119.526 0 77 0C34.4741 0 0 34.4741 0 77C0 119.526 34.4741 154 77 154ZM76.5 148C115.988 148 148 115.988 148 76.5C148 37.0116 115.988 5 76.5 5C37.0116 5 5 37.0116 5 76.5C5 115.988 37.0116 148 76.5 148Z" fill="#6554C0"/>
<path fill-rule="evenodd" clip-rule="evenodd" d="M147.999 76.871C147.799 116.189 115.865 148 76.5 148C37.0116 148 5 115.988 5 76.5C5 37.0116 37.0116 5 76.5 5C76.6668 5 76.8335 5.00057 77 5.00171V0C34.4741 0 0 34.4741 0 77C0 119.526 34.4741 154 77 154C119.526 154 154 119.526 154 77C154 76.957 154 76.914 154 76.871H147.999Z" fill="#C6CCD5"/>
</svg>
