<svg width="176" height="88" viewBox="0 0 176 88" fill="none" xmlns="http://www.w3.org/2000/svg">
<g filter="url(#filter0_d)">
<rect x="8" y="2" width="160" height="72" rx="8" fill="#0261AC"/>
</g>
<path fill-rule="evenodd" clip-rule="evenodd" d="M108.462 26.0374C111.68 26.3185 114.149 29.0127 114.15 32.2432C114.155 35.4782 111.684 38.1791 108.462 38.4606C108.098 38.5108 107.729 38.5108 107.365 38.4606C105.169 38.2705 103.237 36.934 102.284 34.9462C101.332 32.9584 101.5 30.615 102.727 28.7837L102.84 28.6245L102.955 28.4652C104.025 27.0688 105.634 26.1875 107.386 26.0374C107.743 25.9875 108.105 25.9875 108.462 26.0374ZM57 27.4567H60.8262L64.2069 35.4304L64.1792 27.4567H66.6046V38.156H62.8638L59.4023 29.8477L59.43 38.156H57V27.4567ZM73.2531 39.2915H77.4808C78.6738 39.2915 80.25 39.4253 81.2931 40.18C82.7769 41.2624 83.1785 43.0256 83.1785 44.6111C83.1785 46.9813 82.4723 48.7307 80.4485 49.5754C79.4215 49.9908 78.2031 49.9908 77.5108 49.9908H73.2531V39.2915ZM64.0823 39.3215H57V50H59.7692V45.9289H63.7777V43.8703H59.7692V41.3824H64.0823V39.3215ZM72.3115 39.3215H64.7977L64.8069 50H72.4223V47.9229H67.5438V45.6335H72.0346V43.5887H67.5438V41.3662H72.3115V39.3215ZM77.2892 47.9229H76.0962L76.0938 41.3224L77.19 41.3362C78.0346 41.3362 80.3077 41.3362 80.3077 44.5811C80.3077 47.0713 79.1308 47.9229 77.2892 47.9229ZM83.8708 39.3215H91.3846V41.3662H86.6146V43.5887H91.1054V45.6335H86.6146V47.9229H91.4931V50H83.8777L83.8708 39.3215ZM96.8585 39.2915H92.2292V50H95.0123V45.8112H96.1662C97.4102 45.8112 97.4558 46.2833 97.5794 47.5607L97.5808 47.5744C97.6368 48.3865 97.7478 49.1938 97.9131 49.9908H100.913C100.695 49.1239 100.541 48.2423 100.452 47.3529L100.447 47.32C100.228 45.6974 100.106 44.7907 98.1785 44.7311V44.6711C98.7225 44.6099 99.2448 44.4226 99.7038 44.1242C100.184 43.8149 100.627 43.2933 100.627 42.1394C100.627 40.9854 100.239 40.3877 99.9346 40.0623C99.3392 39.4092 98.6608 39.2915 96.8585 39.2915ZM95.0146 43.8841H96.0554C96.6646 43.8841 96.9785 43.8841 97.2092 43.7964C97.8185 43.5887 97.9431 42.9218 97.9431 42.5802C97.9431 41.2624 96.8631 41.2624 96.0577 41.2624H95.0169L95.0146 43.8841ZM108.462 39.2915H105.076L101.13 50H103.899L104.578 47.8514H108.584L109.276 50H112.41L108.462 39.2915ZM107.945 45.8712L106.657 41.3824H106.615L105.231 45.8712H107.945ZM115.514 39.2915H112.701V50H120V47.886H115.514V39.2915ZM74.6815 27.4567H71.3077L67.3546 38.156H70.1238L70.8023 36.0074H74.8085L75.5008 38.156H78.6323L74.6815 27.4567ZM74.1692 34.0364L72.8792 29.5476H72.8377L71.4531 34.0364H74.1692ZM79.6154 27.4567H76.56L80.0954 38.156H83.4185L87.0202 27.587L90.7592 34.2326V38.156H93.5608V34.3803L97.47 27.4567H94.6154L92.3538 31.9455L90.1638 27.4567H87.0646L87.0202 27.587L86.9469 27.4567H84.2954L81.8885 35.2065L79.6154 27.4567ZM110.769 36.8451H109.897C110.168 36.2918 110.372 35.7085 110.506 35.1073H111.953C111.67 35.755 111.268 36.3443 110.769 36.8451ZM105.314 35.1073H103.867L103.874 35.1096C104.156 35.755 104.554 36.3432 105.048 36.8451H105.923C105.653 36.2917 105.448 35.7084 105.314 35.1073ZM102.078 32.4371H102.879C102.897 33.2129 103.035 33.9813 103.288 34.715H102.623C102.29 34.0011 102.107 33.2267 102.085 32.4394L102.078 32.4371ZM105.053 27.6367C104.586 28.0994 104.204 28.6408 103.925 29.2361L103.936 29.2291L103.928 29.2482L103.928 29.2482C103.908 29.2939 103.89 29.3357 103.86 29.3722H105.312C105.325 29.3561 105.325 29.3376 105.325 29.3215L105.376 29.1322L105.427 28.943C105.552 28.493 105.719 28.0557 105.925 27.6367H105.053ZM111.951 29.3745H110.515C110.381 28.7734 110.177 28.1901 109.906 27.6367H110.769C111.271 28.137 111.676 28.7263 111.962 29.3745H111.951ZM112.936 32.0448H113.739L113.751 32.0471C113.722 31.2568 113.532 30.4808 113.192 29.7669H112.528C112.781 30.5004 112.919 31.2689 112.936 32.0448ZM112.544 32.0448H110.818C110.809 31.2801 110.732 30.5177 110.587 29.7669H112.11C112.382 30.4974 112.533 31.2677 112.555 32.0471L112.544 32.0448ZM106.385 27.639C106.115 28.1421 105.907 28.676 105.766 29.2291C105.752 29.2799 105.743 29.3284 105.734 29.3768H107.725V27.639H106.385ZM106.154 27.2444H105.517C105.851 26.9867 106.221 26.7799 106.615 26.6305C106.44 26.8183 106.286 27.0241 106.154 27.2444ZM107.721 27.2444V26.4135C107.333 26.4851 106.959 26.7759 106.615 27.2444H107.721ZM108.113 27.2444V26.4112C108.508 26.4851 108.882 26.7805 109.205 27.2444H108.113ZM110.1 29.3768C109.957 28.7725 109.738 28.1886 109.449 27.639H108.113V29.3768H110.1ZM107.721 29.7692V32.0471H105.413C105.419 31.2822 105.496 30.5196 105.644 29.7692H107.721ZM107.721 34.7173V32.4394H105.413C105.418 33.2043 105.495 33.967 105.644 34.7173H107.721ZM107.721 35.1096V36.8451H106.385C106.094 36.2959 105.875 35.712 105.732 35.1073L107.721 35.1096ZM107.721 38.0752V37.2421H106.627C106.955 37.706 107.326 38.0014 107.721 38.0752ZM108.113 37.2421H109.205C108.879 37.7037 108.512 37.9991 108.113 38.0752V37.2421ZM108.113 35.1096V36.8474L109.452 36.8451C109.74 36.2963 109.958 35.7132 110.1 35.1096H108.113ZM108.113 34.7173V32.4394H110.432C110.426 33.2042 110.349 33.9668 110.202 34.7173H108.113ZM108.113 29.7692V32.0471H110.421C110.415 31.2822 110.338 30.5196 110.19 29.7692H108.113ZM109.685 27.2444C109.547 27.021 109.387 26.8122 109.207 26.6212C109.611 26.7706 109.99 26.9807 110.331 27.2444H109.685ZM105 32.0471C105.009 31.2824 105.086 30.5201 105.231 29.7692H103.705C103.439 30.5 103.293 31.2694 103.274 32.0471H105ZM102.877 32.0471H102.078C102.102 31.2585 102.287 30.4831 102.623 29.7692H103.288C103.038 30.5033 102.902 31.2716 102.886 32.0471H102.877ZM105 32.4394H103.281C103.297 33.217 103.441 33.9867 103.708 34.7173H105.231C105.085 33.9665 105.008 33.2041 105 32.4394ZM106.154 37.2421C106.29 37.4653 106.449 37.6734 106.629 37.8629C106.226 37.7144 105.848 37.5051 105.508 37.2421H106.154ZM110.333 37.2421H109.687H109.685C109.547 37.4645 109.388 37.6725 109.209 37.8629C109.613 37.7143 109.992 37.5049 110.333 37.2421ZM110.61 34.7173C110.755 33.9664 110.832 33.2041 110.841 32.4394H112.567C112.548 33.2172 112.403 33.9866 112.135 34.7173H110.61ZM113.762 32.4394H112.959H112.95C112.936 33.2148 112.801 33.9833 112.551 34.7173H113.215C113.551 34.0031 113.737 33.228 113.762 32.4394ZM113.003 29.3745H112.385C112.124 28.7406 111.762 28.1535 111.312 27.6367H111.498C112.109 28.1121 112.62 28.7025 113.003 29.3745ZM104.522 27.639H104.331C103.885 27.9839 103.492 28.3912 103.163 28.8483C103.043 29.018 102.933 29.1936 102.831 29.3745H103.442L103.498 29.2499L103.583 29.0722L103.668 28.8945C103.899 28.4416 104.186 28.0198 104.522 27.639ZM102.835 35.1096H103.449C103.709 35.7427 104.071 36.329 104.52 36.8451H104.333C103.724 36.3706 103.214 35.7809 102.833 35.1096H102.835ZM111.316 36.8451H111.503C112.11 36.3699 112.618 35.7803 112.998 35.1096H112.385C112.125 35.7424 111.764 36.3286 111.316 36.8451Z" fill="white"/>
<defs>
<filter id="filter0_d" x="0" y="0" width="176" height="88" filterUnits="userSpaceOnUse" color-interpolation-filters="sRGB">
<feFlood flood-opacity="0" result="BackgroundImageFix"/>
<feColorMatrix in="SourceAlpha" type="matrix" values="0 0 0 0 0 0 0 0 0 0 0 0 0 0 0 0 0 0 127 0"/>
<feOffset dy="6"/>
<feGaussianBlur stdDeviation="4"/>
<feColorMatrix type="matrix" values="0 0 0 0 0.00784314 0 0 0 0 0.380392 0 0 0 0 0.67451 0 0 0 0.17 0"/>
<feBlend mode="normal" in2="BackgroundImageFix" result="effect1_dropShadow"/>
<feBlend mode="normal" in="SourceGraphic" in2="effect1_dropShadow" result="shape"/>
</filter>
</defs>
</svg>
