<svg height="512" viewBox="0 0 64 64" width="512" xmlns="http://www.w3.org/2000/svg"><g id="bank-money-3" data-name="bank-money"><path d="m31 39.94v17.06h2v-17.06a8.363 8.363 0 0 1 -2 0z"/><path d="m32.96 34h.04a1 1 0 0 0 0-2h-.03z"/><path d="m30 29a1.012 1.012 0 0 0 .98 1l.01-2a1 1 0 0 0 -.99 1z"/><path d="m40 31a8 8 0 1 0 -8 8 8 8 0 0 0 8-8zm-7-1a3 3 0 0 1 0 6v1h-2v-1a3.009 3.009 0 0 1 -3-3h2a.993.993 0 0 0 .96.99l.01-1.99a3 3 0 0 1 .03-6v-1h2v1a3.009 3.009 0 0 1 3 3h-2a1 1 0 0 0 -1-1h-.01l-.01 2z"/><path d="m6 16h52v2h-52z"/><path d="m11 24h4v28h-4z"/><path d="m9 54h8v2h-8z"/><path d="m49 24h4v28h-4z"/><path d="m47 20h8v2h-8z"/><path d="m9 20h8v2h-8z"/><path d="m32 4.03-28 6.76v3.21h56v-3.21zm0 8.97a4 4 0 1 1 4-4 4 4 0 0 1 -4 4z"/><path d="m4 58h56v2h-56z"/><circle cx="32" cy="9" r="2"/><path d="m47 54h8v2h-8z"/><path d="m23.1 44a5.009 5.009 0 0 0 4.9 4h2.9a5.009 5.009 0 0 0 -4.9-4z"/><path d="m40.9 42h-2.9a5.009 5.009 0 0 0 -4.9 4h2.9a5.009 5.009 0 0 0 4.9-4z"/></g></svg>