<svg width="176" height="88" viewBox="0 0 176 88" fill="none" xmlns="http://www.w3.org/2000/svg">
<g filter="url(#filter0_d)">
<rect x="8" y="2" width="160" height="72" rx="8" fill="#0274B3"/>
</g>
<path fill-rule="evenodd" clip-rule="evenodd" d="M45.0025 39.0395C44.987 32.5371 50.2982 27.2533 56.8656 27.2376C60.0243 27.216 63.0606 28.4451 65.2994 30.6514C67.5381 32.8577 68.7935 35.8583 68.7864 38.9857C68.801 45.4881 63.4891 50.7712 56.9216 50.786C50.3542 50.8009 45.0179 45.5419 45.0025 39.0395ZM50.4624 32.4225C50.4624 30.3267 52.1424 27.5132 55.3656 32.9738C55.9224 33.9671 56.7024 35.2907 56.7024 35.2907C56.3688 35.3453 56.0904 35.5663 55.812 36.0035L54.36 38.5437L51.7968 42.8471C51.7968 42.8471 50.7384 44.5556 50.52 46.3211C50.4024 45.3279 50.46 32.4225 50.46 32.4225H50.4624ZM60.096 40.6396H62.76C69.1752 40.5849 67.56 37.8261 65.7216 36.7283C65.7216 36.7283 54.468 30.2198 53.5776 29.8895C54.9696 30.9374 55.9176 32.7029 55.9176 32.7029L58.4256 37.0562L59.928 39.537C60.1512 39.979 60.2064 40.3639 60.096 40.6396ZM52.3536 43.1774C49.1784 48.6926 52.464 48.6926 54.3024 47.6447C54.3024 47.6447 65.6664 41.2574 66.3816 40.6942C64.7664 41.3548 62.76 41.3002 62.76 41.3002H54.7488C54.3453 41.3297 53.9519 41.1663 53.6904 40.8606C53.6904 40.8606 52.9104 42.2388 52.3536 43.1774Z" fill="#FF5400"/>
<path fill-rule="evenodd" clip-rule="evenodd" d="M79.8275 49.7825H76.695V33.3C76.695 31.5025 76.175 31.0375 73.04 30.69V30.1675H81.8475C86.2575 30.1675 91.77 30.5725 91.77 35.68C91.77 40.73 85.91 41.0775 81.5 41.0775H79.8275V49.7825ZM82.96 31.33C80.0025 31.33 79.8275 31.5525 79.8275 33.3025V39.9775H81.395C84.8175 39.9775 88.1825 39.455 88.1825 35.6825C88.1825 32.78 86.21 31.33 82.96 31.33Z" fill="white"/>
<path d="M94.7119 33.6499C94.7119 31.2699 94.2143 31.0974 91.231 30.6899V30.1699H98.1929L109.081 46.1274H109.136V30.1699H110.96V49.7824H108.307L96.5905 32.7224H96.5357V49.7824H94.7119V33.6499Z" fill="white"/>
<path d="M129.761 49.0245C128.085 49.4782 126.483 49.8172 123.202 49.8172C116.644 49.8172 113.089 45.1196 113.089 39.344C113.089 34.1928 115.2 30.1172 122.369 30.1172C127.649 30.1172 129.538 32.3806 129.761 34.305H126.37C126.205 33.4001 125.592 31.4172 122.147 31.4172C118.423 31.4172 116.479 34.2489 116.479 38.6074C116.479 42.6269 117.48 48.5708 125.149 48.5708C127.206 48.5708 129.373 47.9489 129.763 47.8391L129.761 49.0245Z" fill="white"/>
<defs>
<filter id="filter0_d" x="0" y="0" width="176" height="88" filterUnits="userSpaceOnUse" color-interpolation-filters="sRGB">
<feFlood flood-opacity="0" result="BackgroundImageFix"/>
<feColorMatrix in="SourceAlpha" type="matrix" values="0 0 0 0 0 0 0 0 0 0 0 0 0 0 0 0 0 0 127 0"/>
<feOffset dy="6"/>
<feGaussianBlur stdDeviation="4"/>
<feColorMatrix type="matrix" values="0 0 0 0 0.00784314 0 0 0 0 0.454902 0 0 0 0 0.701961 0 0 0 0.17 0"/>
<feBlend mode="normal" in2="BackgroundImageFix" result="effect1_dropShadow"/>
<feBlend mode="normal" in="SourceGraphic" in2="effect1_dropShadow" result="shape"/>
</filter>
</defs>
</svg>
