<svg width="58" height="59" viewBox="0 0 58 59" fill="none" xmlns="http://www.w3.org/2000/svg">
<path d="M51.9999 29.2109V30.4489C51.9999 37.3809 40.3589 42.9999 25.9999 42.9999C18.0739 42.9999 10.9809 41.2859 6.21191 38.5859C7.81991 44.8309 18.7479 49.9999 31.9999 49.9999C46.3589 49.9999 57.9999 43.9319 57.9999 36.9999C57.9999 33.9519 55.7439 31.2659 51.9999 29.2109Z" fill="#9881F3"/>
<path d="M32 50C17.641 50 6 43.932 6 37V45.448C6 52.38 17.641 58 32 58C46.359 58 58 52.38 58 45.448V37C58 43.932 46.359 50 32 50Z" fill="#6554C0"/>
<path d="M9 51.349C9.59 51.888 10.259 52.404 11 52.894V44.603C10.259 44.093 9.59 43.558 9 43V51.349Z" fill="#302A8F"/>
<path d="M53 44.603V52.894C53.741 52.405 54.41 51.888 55 51.349V43C54.411 43.558 53.742 44.093 53 44.603Z" fill="#302A8F"/>
<path d="M13 54.0603C13.632 54.3873 14.3 54.6963 15 54.9893V46.7963C14.3 46.4883 13.632 46.1633 13 45.8213V54.0603Z" fill="#302A8F"/>
<path d="M49 54.9883C49.7 54.6963 50.368 54.3863 51 54.0593V45.8203C50.368 46.1623 49.7 46.4883 49 46.7953V54.9883Z" fill="#302A8F"/>
<path d="M17 55.7447C17.646 55.9657 18.313 56.1717 19 56.3637V48.2497C18.313 48.0457 17.646 47.8267 17 47.5938V55.7447Z" fill="#302A8F"/>
<path d="M45 56.3637C45.687 56.1717 46.354 55.9657 47 55.7447V47.5938C46.354 47.8267 45.687 48.0457 45 48.2497V56.3637Z" fill="#302A8F"/>
<path d="M22 57.0836C22.653 57.2156 23.321 57.3336 24 57.4386V49.3946C23.321 49.2816 22.653 49.1556 22 49.0156V57.0836Z" fill="#302A8F"/>
<path d="M40 57.4386C40.679 57.3326 41.347 57.2146 42 57.0836V49.0146C41.347 49.1546 40.679 49.2806 40 49.3946V57.4386Z" fill="#302A8F"/>
<path d="M28 57.8987C28.658 57.9477 29.326 57.9817 30 58.0057V50.0027C29.326 49.9767 28.658 49.9407 28 49.8877V57.8987Z" fill="#302A8F"/>
<path d="M34 58.0067C34.674 57.9817 35.342 57.9487 36 57.8997V49.8877C35.342 49.9407 34.674 49.9767 34 50.0037V58.0067Z" fill="#302A8F"/>
<path d="M26 34.9932C11.641 34.9932 0 28.9252 0 21.9932V30.4412C0 37.3732 11.641 42.9932 26 42.9932C40.359 42.9932 52 37.3732 52 30.4412V21.9932C52 28.9252 40.359 34.9932 26 34.9932Z" fill="#6554C0"/>
<path d="M3 36.3421C3.59 36.8811 4.259 37.3971 5 37.8871V29.5961C4.259 29.0861 3.59 28.5511 3 27.9941V36.3421Z" fill="#302A8F"/>
<path d="M47 29.5962V37.8872C47.741 37.3982 48.41 36.8812 49 36.3422V27.9932C48.411 28.5512 47.742 29.0862 47 29.5962Z" fill="#302A8F"/>
<path d="M7 39.0535C7.632 39.3805 8.3 39.6895 9 39.9825V31.7895C8.3 31.4815 7.632 31.1565 7 30.8145V39.0535Z" fill="#302A8F"/>
<path d="M43 39.9805C43.7 39.6885 44.368 39.3795 45 39.0515V30.8125C44.368 31.1545 43.7 31.4805 43 31.7875V39.9805Z" fill="#302A8F"/>
<path d="M11 40.7379C11.646 40.9589 12.313 41.1649 13 41.3569V33.2429C12.313 33.0389 11.646 32.8199 11 32.5869V40.7379Z" fill="#302A8F"/>
<path d="M39 41.3569C39.687 41.1649 40.354 40.9589 41 40.7379V32.5869C40.354 32.8199 39.687 33.0389 39 33.2429V41.3569Z" fill="#302A8F"/>
<path d="M16 42.0768C16.653 42.2088 17.321 42.3268 18 42.4318V34.3878C17.321 34.2748 16.653 34.1488 16 34.0088V42.0768Z" fill="#302A8F"/>
<path d="M34 42.4328C34.679 42.3268 35.347 42.2088 36 42.0778V34.0088C35.347 34.1488 34.679 34.2748 34 34.3888V42.4328Z" fill="#302A8F"/>
<path d="M22 42.8928C22.658 42.9418 23.326 42.9758 24 42.9998V34.9968C23.326 34.9708 22.658 34.9348 22 34.8818V42.8928Z" fill="#302A8F"/>
<path d="M28 42.9999C28.674 42.9749 29.342 42.9419 30 42.8929V34.8809C29.342 34.9339 28.674 34.9699 28 34.9969V42.9999Z" fill="#302A8F"/>
<path d="M51.3172 33.3018C48.6402 38.8578 38.3262 42.9998 26.0002 42.9998C21.3962 42.9998 17.0742 42.4198 13.3232 41.4068C16.9512 43.8698 23.4082 45.9658 32.0002 45.9658C45.6822 45.9658 54.0002 40.6548 54.0002 36.9998C54.0002 35.7798 53.0612 34.4858 51.3172 33.3018Z" fill="#6554C0"/>
<path d="M31 32.9999C16.641 32.9999 5 27.3799 5 20.4479V14.7959C1.859 16.7649 0 19.2339 0 21.9999C0 28.9319 11.641 34.9999 26 34.9999C32.914 34.9999 39.192 33.5909 43.849 31.3579C40.058 32.4009 35.675 32.9999 31 32.9999Z" fill="#9881F3"/>
<path d="M31 24.9932C16.641 24.9932 5 18.9252 5 11.9932V20.4412C5 27.3732 16.641 32.9932 31 32.9932C45.359 32.9932 57 27.3732 57 20.4412V11.9932C57 18.9252 45.359 24.9932 31 24.9932Z" fill="#302A8F"/>
<path d="M8 26.3421C8.59 26.8811 9.259 27.3971 10 27.8871V19.5961C9.259 19.0861 8.59 18.5511 8 17.9941V26.3421Z" fill="#6554C0"/>
<path d="M52 19.5962V27.8872C52.741 27.3982 53.41 26.8812 54 26.3422V17.9932C53.411 18.5512 52.742 19.0862 52 19.5962Z" fill="#6554C0"/>
<path d="M12 29.0535C12.632 29.3805 13.3 29.6895 14 29.9825V21.7895C13.3 21.4815 12.632 21.1565 12 20.8145V29.0535Z" fill="#6554C0"/>
<path d="M48 29.9805C48.7 29.6885 49.368 29.3795 50 29.0515V20.8125C49.368 21.1545 48.7 21.4805 48 21.7875V29.9805Z" fill="#6554C0"/>
<path d="M16 30.7379C16.646 30.9589 17.313 31.1649 18 31.3569V23.2429C17.313 23.0389 16.646 22.8199 16 22.5869V30.7379Z" fill="#6554C0"/>
<path d="M44 31.3569C44.687 31.1649 45.354 30.9589 46 30.7379V22.5869C45.354 22.8199 44.687 23.0389 44 23.2429V31.3569Z" fill="#6554C0"/>
<path d="M21 32.0768C21.653 32.2088 22.321 32.3268 23 32.4318V24.3878C22.321 24.2748 21.653 24.1488 21 24.0088V32.0768Z" fill="#6554C0"/>
<path d="M39 32.4328C39.679 32.3268 40.347 32.2088 41 32.0778V24.0088C40.347 24.1488 39.679 24.2748 39 24.3888V32.4328Z" fill="#6554C0"/>
<path d="M27 32.8928C27.658 32.9418 28.326 32.9758 29 32.9998V24.9968C28.326 24.9708 27.658 24.9348 27 24.8818V32.8928Z" fill="#6554C0"/>
<path d="M33 32.9999C33.674 32.9749 34.342 32.9419 35 32.8929V24.8809C34.342 24.9339 33.674 24.9699 33 24.9969V32.9999Z" fill="#6554C0"/>
<path d="M57 12C57 18.932 45.359 25 31 25C16.641 25 5 18.932 5 12C5 5.068 16.641 0 31 0C45.359 0 57 5.068 57 12Z" fill="#9881F3"/>
<path d="M31 20.966C17.318 20.966 9 15.656 9 12C9 8.345 17.318 3 31 3C44.682 3 53 8.345 53 12C53 15.656 44.682 20.966 31 20.966Z" fill="#6554C0"/>
<path d="M37.781 13.3594C38.601 13.1854 39.082 12.6794 38.905 12.1024L38.715 11.4864C38.576 11.0334 38.035 10.6554 37.372 10.4674C36.47 8.54044 34.17 7.84244 30.754 7.84244C30.592 7.84244 30.434 7.84644 30.278 7.85244C29.112 7.90044 27.949 7.78844 27.042 7.45644C26.672 7.32144 26.371 7.18044 26.172 7.03344C26.082 6.96744 25.864 7.00944 25.864 7.09344C25.864 7.23944 25.875 7.41244 25.907 7.60444C26.031 8.35144 25.883 8.23944 25.145 8.98444C24.717 9.41844 24.376 9.91844 24.129 10.4704C23.47 10.6594 22.932 11.0364 22.793 11.4874L22.603 12.1034C22.426 12.6804 22.907 13.1864 23.727 13.3604C23.961 14.8364 24.964 16.1324 27.151 16.8464L27.031 17.8834C26.999 18.1604 26.76 18.4164 26.412 18.5424L22.001 20.1344C24.577 20.6744 27.513 21.0004 30.754 21.0004C33.95 21.0004 36.849 20.6834 39.399 20.1584L35.084 18.5454C34.743 18.4174 34.509 18.1634 34.478 17.8914L34.357 16.8464C36.544 16.1324 37.547 14.8354 37.781 13.3594Z" fill="#302A8F"/>
</svg>
