<svg width="312" height="201" viewBox="0 0 312 201" fill="none" xmlns="http://www.w3.org/2000/svg">
<path d="M21.76 197C21.6533 197 21.568 196.968 21.504 196.904C21.44 196.829 21.408 196.739 21.408 196.632V186.184C21.408 186.067 21.44 185.976 21.504 185.912C21.568 185.837 21.6533 185.8 21.76 185.8H25.808C27.0133 185.8 27.9573 186.093 28.64 186.68C29.3333 187.256 29.68 188.099 29.68 189.208C29.68 190.317 29.3333 191.16 28.64 191.736C27.9573 192.312 27.0133 192.6 25.808 192.6H22.928V196.632C22.928 196.739 22.8907 196.829 22.816 196.904C22.752 196.968 22.6667 197 22.56 197H21.76ZM25.728 191.304C27.3387 191.304 28.144 190.605 28.144 189.208C28.144 188.525 27.9413 188.003 27.536 187.64C27.1413 187.277 26.5387 187.096 25.728 187.096H22.928V191.304H25.728ZM31.834 197C31.7273 197 31.6367 196.968 31.562 196.904C31.498 196.829 31.466 196.739 31.466 196.632V186.008C31.466 185.891 31.498 185.8 31.562 185.736C31.6367 185.672 31.7273 185.64 31.834 185.64H32.538C32.6447 185.64 32.73 185.677 32.794 185.752C32.8687 185.816 32.906 185.901 32.906 186.008V196.632C32.906 196.739 32.8687 196.829 32.794 196.904C32.73 196.968 32.6447 197 32.538 197H31.834ZM37.6134 197.16C37.0907 197.16 36.6054 197.053 36.1574 196.84C35.72 196.627 35.368 196.339 35.1014 195.976C34.8454 195.603 34.7174 195.192 34.7174 194.744C34.7174 194.04 35.0054 193.464 35.5814 193.016C36.1574 192.568 36.9414 192.269 37.9334 192.12L40.3334 191.784V191.32C40.3334 190.221 39.6987 189.672 38.4294 189.672C37.9387 189.672 37.544 189.773 37.2454 189.976C36.9467 190.168 36.728 190.397 36.5894 190.664C36.5467 190.771 36.4987 190.845 36.4454 190.888C36.4027 190.92 36.3387 190.936 36.2534 190.936H35.6294C35.5334 190.936 35.448 190.904 35.3734 190.84C35.3094 190.765 35.2774 190.68 35.2774 190.584C35.2774 190.339 35.3894 190.056 35.6134 189.736C35.848 189.405 36.2054 189.123 36.6854 188.888C37.1654 188.643 37.752 188.52 38.4454 188.52C39.64 188.52 40.4934 188.797 41.0054 189.352C41.528 189.907 41.7894 190.6 41.7894 191.432V196.632C41.7894 196.739 41.752 196.829 41.6774 196.904C41.6134 196.968 41.528 197 41.4214 197H40.7174C40.6107 197 40.5254 196.968 40.4614 196.904C40.3974 196.829 40.3654 196.739 40.3654 196.632V195.928C40.1307 196.28 39.7894 196.573 39.3414 196.808C38.8934 197.043 38.3174 197.16 37.6134 197.16ZM37.9334 195.992C38.6374 195.992 39.2134 195.763 39.6614 195.304C40.1094 194.845 40.3334 194.179 40.3334 193.304V192.856L38.4614 193.128C37.6934 193.235 37.112 193.416 36.7174 193.672C36.3227 193.928 36.1254 194.248 36.1254 194.632C36.1254 195.069 36.3014 195.405 36.6534 195.64C37.016 195.875 37.4427 195.992 37.9334 195.992ZM44.4743 197C44.3676 197 44.2769 196.968 44.2023 196.904C44.1383 196.829 44.1063 196.739 44.1063 196.632V189.048C44.1063 188.941 44.1383 188.856 44.2023 188.792C44.2769 188.717 44.3676 188.68 44.4743 188.68H45.1623C45.2796 188.68 45.3703 188.712 45.4343 188.776C45.4983 188.84 45.5303 188.931 45.5303 189.048V189.752C45.8503 189.357 46.2183 189.053 46.6343 188.84C47.0609 188.627 47.5889 188.52 48.2183 188.52C49.2423 188.52 50.0369 188.851 50.6023 189.512C51.1676 190.163 51.4503 191.027 51.4503 192.104V196.632C51.4503 196.739 51.4129 196.829 51.3383 196.904C51.2743 196.968 51.1889 197 51.0823 197H50.3463C50.2396 197 50.1489 196.968 50.0743 196.904C50.0103 196.829 49.9783 196.739 49.9783 196.632V192.2C49.9783 191.432 49.7916 190.835 49.4183 190.408C49.0449 189.981 48.5116 189.768 47.8183 189.768C47.1356 189.768 46.5916 189.987 46.1863 190.424C45.7809 190.851 45.5783 191.443 45.5783 192.2V196.632C45.5783 196.739 45.5409 196.829 45.4663 196.904C45.4023 196.968 45.3169 197 45.2103 197H44.4743ZM56.6105 197.16C55.8745 197.16 55.2505 197.043 54.7385 196.808C54.2372 196.563 53.8638 196.285 53.6185 195.976C53.3732 195.667 53.2505 195.411 53.2505 195.208C53.2505 195.101 53.2878 195.021 53.3625 194.968C53.4372 194.904 53.5172 194.872 53.6025 194.872H54.2745C54.3385 194.872 54.3865 194.883 54.4185 194.904C54.4612 194.925 54.5145 194.973 54.5785 195.048C54.8238 195.347 55.0958 195.581 55.3945 195.752C55.7038 195.923 56.1145 196.008 56.6265 196.008C57.2025 196.008 57.6612 195.901 58.0025 195.688C58.3545 195.475 58.5305 195.165 58.5305 194.76C58.5305 194.493 58.4558 194.28 58.3065 194.12C58.1572 193.96 57.9065 193.816 57.5545 193.688C57.2132 193.56 56.7012 193.421 56.0185 193.272C55.0905 193.069 54.4345 192.776 54.0505 192.392C53.6665 192.008 53.4745 191.512 53.4745 190.904C53.4745 190.509 53.5918 190.131 53.8265 189.768C54.0612 189.395 54.4078 189.096 54.8665 188.872C55.3358 188.637 55.8905 188.52 56.5305 188.52C57.2025 188.52 57.7732 188.632 58.2425 188.856C58.7225 189.08 59.0798 189.341 59.3145 189.64C59.5598 189.939 59.6825 190.189 59.6825 190.392C59.6825 190.488 59.6452 190.568 59.5705 190.632C59.5065 190.696 59.4265 190.728 59.3305 190.728H58.7225C58.5732 190.728 58.4665 190.669 58.4025 190.552C58.2212 190.349 58.0665 190.195 57.9385 190.088C57.8212 189.971 57.6452 189.875 57.4105 189.8C57.1758 189.715 56.8825 189.672 56.5305 189.672C56.0078 189.672 55.6078 189.784 55.3305 190.008C55.0532 190.221 54.9145 190.509 54.9145 190.872C54.9145 191.096 54.9732 191.288 55.0905 191.448C55.2078 191.597 55.4318 191.741 55.7625 191.88C56.0932 192.008 56.5838 192.141 57.2345 192.28C58.2478 192.493 58.9625 192.797 59.3785 193.192C59.8052 193.587 60.0185 194.093 60.0185 194.712C60.0185 195.171 59.8852 195.587 59.6185 195.96C59.3625 196.333 58.9732 196.627 58.4505 196.84C57.9385 197.053 57.3252 197.16 56.6105 197.16Z" fill="#5E6C84"/>
<circle cx="6.5" cy="191.5" r="6.5" fill="#E3FCF9"/>
<path d="M5.29815 192.953L3.7344 191.389L3.2019 191.918L5.29815 194.014L9.79815 189.514L9.2694 188.986L5.29815 192.953Z" fill="#6554C0"/>
<path d="M118.76 197C118.653 197 118.568 196.968 118.504 196.904C118.44 196.829 118.408 196.739 118.408 196.632V186.184C118.408 186.067 118.44 185.976 118.504 185.912C118.568 185.837 118.653 185.8 118.76 185.8H119.512C119.629 185.8 119.72 185.837 119.784 185.912C119.859 185.976 119.896 186.067 119.896 186.184V190.168L124.232 186.056C124.403 185.885 124.611 185.8 124.856 185.8H125.656C125.741 185.8 125.816 185.832 125.88 185.896C125.944 185.96 125.976 186.035 125.976 186.12C125.976 186.205 125.949 186.275 125.896 186.328L120.904 191.16L126.232 196.456C126.285 196.52 126.312 196.595 126.312 196.68C126.312 196.765 126.28 196.84 126.216 196.904C126.152 196.968 126.077 197 125.992 197H125.16C125.011 197 124.893 196.979 124.808 196.936C124.723 196.883 124.632 196.819 124.536 196.744L119.896 192.216V196.632C119.896 196.739 119.859 196.829 119.784 196.904C119.709 196.968 119.619 197 119.512 197H118.76ZM131.331 197C131.224 197 131.133 196.968 131.059 196.904C130.995 196.829 130.963 196.739 130.963 196.632V192.84L127.107 186.328C127.075 186.264 127.059 186.195 127.059 186.12C127.059 186.035 127.091 185.96 127.155 185.896C127.219 185.832 127.293 185.8 127.379 185.8H128.147C128.339 185.8 128.477 185.891 128.562 186.072L131.731 191.304L134.883 186.072C134.989 185.891 135.128 185.8 135.299 185.8H136.067C136.152 185.8 136.227 185.832 136.291 185.896C136.365 185.96 136.403 186.035 136.403 186.12C136.403 186.173 136.381 186.243 136.339 186.328L132.483 192.84V196.632C132.483 196.739 132.445 196.829 132.371 196.904C132.307 196.968 132.216 197 132.099 197H131.331ZM141.799 197.16C140.38 197.16 139.297 196.776 138.551 196.008C137.815 195.229 137.42 194.168 137.367 192.824C137.356 192.536 137.351 192.067 137.351 191.416C137.351 190.755 137.356 190.275 137.367 189.976C137.42 188.632 137.815 187.576 138.551 186.808C139.297 186.029 140.38 185.64 141.799 185.64C142.748 185.64 143.553 185.811 144.215 186.152C144.876 186.483 145.372 186.92 145.703 187.464C146.044 188.008 146.231 188.589 146.263 189.208C146.263 189.304 146.225 189.384 146.151 189.448C146.087 189.501 146.007 189.528 145.911 189.528H145.111C145.004 189.528 144.919 189.501 144.855 189.448C144.791 189.395 144.743 189.304 144.711 189.176C144.529 188.355 144.199 187.779 143.719 187.448C143.249 187.117 142.609 186.952 141.799 186.952C139.943 186.952 138.977 187.987 138.903 190.056C138.892 190.344 138.887 190.787 138.887 191.384C138.887 191.981 138.892 192.435 138.903 192.744C138.977 194.803 139.943 195.832 141.799 195.832C142.599 195.832 143.239 195.667 143.719 195.336C144.199 195.005 144.529 194.435 144.711 193.624C144.743 193.496 144.791 193.405 144.855 193.352C144.919 193.299 145.004 193.272 145.111 193.272H145.911C146.007 193.272 146.087 193.304 146.151 193.368C146.225 193.421 146.263 193.496 146.263 193.592C146.231 194.211 146.044 194.792 145.703 195.336C145.372 195.88 144.876 196.323 144.215 196.664C143.553 196.995 142.748 197.16 141.799 197.16Z" fill="#C1C7D0"/>
<ellipse cx="103.5" cy="192" rx="6.5" ry="7" fill="#E3FCF9"/>
<path d="M206.976 197.16C206.101 197.16 205.339 197.021 204.688 196.744C204.048 196.467 203.557 196.104 203.216 195.656C202.885 195.197 202.709 194.707 202.688 194.184C202.688 194.099 202.72 194.024 202.784 193.96C202.848 193.896 202.928 193.864 203.024 193.864H203.808C204 193.864 204.133 193.971 204.208 194.184C204.304 194.632 204.576 195.021 205.024 195.352C205.483 195.672 206.133 195.832 206.976 195.832C207.883 195.832 208.56 195.672 209.008 195.352C209.456 195.032 209.68 194.589 209.68 194.024C209.68 193.661 209.568 193.363 209.344 193.128C209.131 192.893 208.805 192.691 208.368 192.52C207.941 192.339 207.296 192.12 206.432 191.864C205.611 191.629 204.955 191.379 204.464 191.112C203.984 190.845 203.621 190.52 203.376 190.136C203.131 189.741 203.008 189.245 203.008 188.648C203.008 188.072 203.163 187.56 203.472 187.112C203.781 186.653 204.229 186.296 204.816 186.04C205.403 185.773 206.096 185.64 206.896 185.64C207.728 185.64 208.437 185.789 209.024 186.088C209.621 186.376 210.075 186.744 210.384 187.192C210.693 187.629 210.859 188.072 210.88 188.52C210.88 188.616 210.848 188.696 210.784 188.76C210.72 188.824 210.64 188.856 210.544 188.856H209.744C209.659 188.856 209.579 188.829 209.504 188.776C209.429 188.723 209.376 188.643 209.344 188.536C209.28 188.077 209.024 187.699 208.576 187.4C208.128 187.101 207.568 186.952 206.896 186.952C206.171 186.952 205.595 187.096 205.168 187.384C204.741 187.661 204.528 188.077 204.528 188.632C204.528 189.005 204.624 189.309 204.816 189.544C205.019 189.779 205.323 189.987 205.728 190.168C206.144 190.349 206.747 190.557 207.536 190.792C208.443 191.048 209.152 191.304 209.664 191.56C210.187 191.816 210.576 192.136 210.832 192.52C211.088 192.893 211.216 193.379 211.216 193.976C211.216 194.979 210.832 195.763 210.064 196.328C209.307 196.883 208.277 197.16 206.976 197.16ZM216.322 197C214.669 197 213.842 196.067 213.842 194.2V189.912H212.578C212.471 189.912 212.386 189.88 212.322 189.816C212.258 189.752 212.226 189.667 212.226 189.56V189.048C212.226 188.941 212.258 188.856 212.322 188.792C212.386 188.717 212.471 188.68 212.578 188.68H213.842V186.008C213.842 185.901 213.874 185.816 213.938 185.752C214.002 185.677 214.087 185.64 214.194 185.64H214.898C215.005 185.64 215.09 185.677 215.154 185.752C215.229 185.816 215.266 185.901 215.266 186.008V188.68H217.25C217.357 188.68 217.442 188.717 217.506 188.792C217.581 188.856 217.618 188.941 217.618 189.048V189.56C217.618 189.667 217.581 189.752 217.506 189.816C217.442 189.88 217.357 189.912 217.25 189.912H215.266V194.088C215.266 194.632 215.351 195.043 215.522 195.32C215.703 195.597 216.007 195.736 216.434 195.736H217.41C217.517 195.736 217.602 195.773 217.666 195.848C217.73 195.912 217.762 195.997 217.762 196.104V196.632C217.762 196.739 217.73 196.829 217.666 196.904C217.602 196.968 217.517 197 217.41 197H216.322ZM221.629 197.16C221.106 197.16 220.621 197.053 220.173 196.84C219.736 196.627 219.384 196.339 219.117 195.976C218.861 195.603 218.733 195.192 218.733 194.744C218.733 194.04 219.021 193.464 219.597 193.016C220.173 192.568 220.957 192.269 221.949 192.12L224.349 191.784V191.32C224.349 190.221 223.714 189.672 222.445 189.672C221.954 189.672 221.56 189.773 221.261 189.976C220.962 190.168 220.744 190.397 220.605 190.664C220.562 190.771 220.514 190.845 220.461 190.888C220.418 190.92 220.354 190.936 220.269 190.936H219.645C219.549 190.936 219.464 190.904 219.389 190.84C219.325 190.765 219.293 190.68 219.293 190.584C219.293 190.339 219.405 190.056 219.629 189.736C219.864 189.405 220.221 189.123 220.701 188.888C221.181 188.643 221.768 188.52 222.461 188.52C223.656 188.52 224.509 188.797 225.021 189.352C225.544 189.907 225.805 190.6 225.805 191.432V196.632C225.805 196.739 225.768 196.829 225.693 196.904C225.629 196.968 225.544 197 225.437 197H224.733C224.626 197 224.541 196.968 224.477 196.904C224.413 196.829 224.381 196.739 224.381 196.632V195.928C224.146 196.28 223.805 196.573 223.357 196.808C222.909 197.043 222.333 197.16 221.629 197.16ZM221.949 195.992C222.653 195.992 223.229 195.763 223.677 195.304C224.125 194.845 224.349 194.179 224.349 193.304V192.856L222.477 193.128C221.709 193.235 221.128 193.416 220.733 193.672C220.338 193.928 220.141 194.248 220.141 194.632C220.141 195.069 220.317 195.405 220.669 195.64C221.032 195.875 221.458 195.992 221.949 195.992ZM228.49 197C228.383 197 228.293 196.968 228.218 196.904C228.154 196.829 228.122 196.739 228.122 196.632V189.064C228.122 188.957 228.154 188.867 228.218 188.792C228.293 188.717 228.383 188.68 228.49 188.68H229.162C229.279 188.68 229.37 188.717 229.434 188.792C229.509 188.856 229.546 188.947 229.546 189.064V189.768C229.983 189.043 230.725 188.68 231.77 188.68H232.394C232.511 188.68 232.602 188.712 232.666 188.776C232.73 188.84 232.762 188.931 232.762 189.048V189.64C232.762 189.747 232.73 189.837 232.666 189.912C232.602 189.976 232.511 190.008 232.394 190.008H231.482C230.895 190.008 230.431 190.179 230.09 190.52C229.759 190.861 229.594 191.325 229.594 191.912V196.632C229.594 196.739 229.557 196.829 229.482 196.904C229.407 196.968 229.317 197 229.21 197H228.49ZM237.338 197C235.684 197 234.858 196.067 234.858 194.2V189.912H233.594C233.487 189.912 233.402 189.88 233.338 189.816C233.274 189.752 233.242 189.667 233.242 189.56V189.048C233.242 188.941 233.274 188.856 233.338 188.792C233.402 188.717 233.487 188.68 233.594 188.68H234.858V186.008C234.858 185.901 234.89 185.816 234.954 185.752C235.018 185.677 235.103 185.64 235.21 185.64H235.914C236.02 185.64 236.106 185.677 236.17 185.752C236.244 185.816 236.282 185.901 236.282 186.008V188.68H238.266C238.372 188.68 238.458 188.717 238.522 188.792C238.596 188.856 238.634 188.941 238.634 189.048V189.56C238.634 189.667 238.596 189.752 238.522 189.816C238.458 189.88 238.372 189.912 238.266 189.912H236.282V194.088C236.282 194.632 236.367 195.043 236.538 195.32C236.719 195.597 237.023 195.736 237.45 195.736H238.426C238.532 195.736 238.618 195.773 238.682 195.848C238.746 195.912 238.778 195.997 238.778 196.104V196.632C238.778 196.739 238.746 196.829 238.682 196.904C238.618 196.968 238.532 197 238.426 197H237.338ZM244.838 197C244.731 197 244.646 196.968 244.582 196.904C244.518 196.829 244.486 196.739 244.486 196.632V186.168C244.486 186.061 244.518 185.976 244.582 185.912C244.646 185.837 244.731 185.8 244.838 185.8H245.638C245.755 185.8 245.846 185.832 245.91 185.896C245.974 185.96 246.006 186.051 246.006 186.168V196.632C246.006 196.739 245.969 196.829 245.894 196.904C245.83 196.968 245.745 197 245.638 197H244.838ZM248.99 197C248.883 197 248.793 196.968 248.718 196.904C248.654 196.829 248.622 196.739 248.622 196.632V189.048C248.622 188.941 248.654 188.856 248.718 188.792C248.793 188.717 248.883 188.68 248.99 188.68H249.678C249.795 188.68 249.886 188.712 249.95 188.776C250.014 188.84 250.046 188.931 250.046 189.048V189.752C250.366 189.357 250.734 189.053 251.15 188.84C251.577 188.627 252.105 188.52 252.734 188.52C253.758 188.52 254.553 188.851 255.118 189.512C255.683 190.163 255.966 191.027 255.966 192.104V196.632C255.966 196.739 255.929 196.829 255.854 196.904C255.79 196.968 255.705 197 255.598 197H254.862C254.755 197 254.665 196.968 254.59 196.904C254.526 196.829 254.494 196.739 254.494 196.632V192.2C254.494 191.432 254.307 190.835 253.934 190.408C253.561 189.981 253.027 189.768 252.334 189.768C251.651 189.768 251.107 189.987 250.702 190.424C250.297 190.851 250.094 191.443 250.094 192.2V196.632C250.094 196.739 250.057 196.829 249.982 196.904C249.918 196.968 249.833 197 249.726 197H248.99ZM260.94 197C260.662 197 260.465 196.867 260.348 196.6L257.372 189.176C257.361 189.144 257.356 189.091 257.356 189.016C257.356 188.92 257.388 188.84 257.452 188.776C257.516 188.712 257.59 188.68 257.676 188.68H258.412C258.582 188.68 258.71 188.765 258.796 188.936L261.26 195.32L263.724 188.936C263.745 188.872 263.788 188.813 263.852 188.76C263.926 188.707 264.012 188.68 264.108 188.68H264.844C264.929 188.68 265.004 188.712 265.068 188.776C265.132 188.84 265.164 188.92 265.164 189.016L265.132 189.176L262.172 196.6C262.054 196.867 261.857 197 261.58 197H260.94ZM269.871 197.16C268.783 197.16 267.914 196.824 267.263 196.152C266.612 195.469 266.255 194.541 266.191 193.368L266.175 192.824L266.191 192.296C266.255 191.144 266.612 190.227 267.263 189.544C267.914 188.861 268.783 188.52 269.871 188.52C271.044 188.52 271.951 188.893 272.591 189.64C273.242 190.387 273.567 191.4 273.567 192.68V192.968C273.567 193.075 273.53 193.165 273.455 193.24C273.391 193.304 273.306 193.336 273.199 193.336H267.647V193.48C267.679 194.173 267.892 194.765 268.287 195.256C268.682 195.747 269.204 195.992 269.855 195.992C270.356 195.992 270.762 195.896 271.071 195.704C271.391 195.501 271.631 195.293 271.791 195.08C271.887 194.952 271.962 194.877 272.015 194.856C272.068 194.824 272.159 194.808 272.287 194.808H272.991C273.087 194.808 273.167 194.835 273.231 194.888C273.306 194.941 273.343 195.011 273.343 195.096C273.343 195.331 273.199 195.613 272.911 195.944C272.623 196.275 272.212 196.563 271.679 196.808C271.156 197.043 270.554 197.16 269.871 197.16ZM272.111 192.248V192.2C272.111 191.453 271.908 190.845 271.503 190.376C271.098 189.907 270.554 189.672 269.871 189.672C269.178 189.672 268.634 189.907 268.239 190.376C267.844 190.845 267.647 191.453 267.647 192.2V192.248H272.111ZM278.361 197.16C277.625 197.16 277.001 197.043 276.489 196.808C275.987 196.563 275.614 196.285 275.368 195.976C275.123 195.667 275.001 195.411 275.001 195.208C275.001 195.101 275.038 195.021 275.113 194.968C275.187 194.904 275.267 194.872 275.353 194.872H276.025C276.089 194.872 276.137 194.883 276.169 194.904C276.211 194.925 276.265 194.973 276.329 195.048C276.574 195.347 276.846 195.581 277.145 195.752C277.454 195.923 277.865 196.008 278.377 196.008C278.953 196.008 279.411 195.901 279.753 195.688C280.105 195.475 280.281 195.165 280.281 194.76C280.281 194.493 280.206 194.28 280.057 194.12C279.907 193.96 279.657 193.816 279.305 193.688C278.963 193.56 278.451 193.421 277.769 193.272C276.841 193.069 276.185 192.776 275.801 192.392C275.417 192.008 275.225 191.512 275.225 190.904C275.225 190.509 275.342 190.131 275.577 189.768C275.811 189.395 276.158 189.096 276.617 188.872C277.086 188.637 277.641 188.52 278.281 188.52C278.953 188.52 279.523 188.632 279.993 188.856C280.473 189.08 280.83 189.341 281.065 189.64C281.31 189.939 281.433 190.189 281.433 190.392C281.433 190.488 281.395 190.568 281.321 190.632C281.257 190.696 281.177 190.728 281.081 190.728H280.473C280.323 190.728 280.217 190.669 280.153 190.552C279.971 190.349 279.817 190.195 279.689 190.088C279.571 189.971 279.395 189.875 279.161 189.8C278.926 189.715 278.633 189.672 278.281 189.672C277.758 189.672 277.358 189.784 277.081 190.008C276.803 190.221 276.664 190.509 276.664 190.872C276.664 191.096 276.723 191.288 276.841 191.448C276.958 191.597 277.182 191.741 277.513 191.88C277.843 192.008 278.334 192.141 278.985 192.28C279.998 192.493 280.713 192.797 281.129 193.192C281.555 193.587 281.769 194.093 281.769 194.712C281.769 195.171 281.635 195.587 281.369 195.96C281.113 196.333 280.723 196.627 280.201 196.84C279.689 197.053 279.075 197.16 278.361 197.16ZM286.822 197C285.169 197 284.342 196.067 284.342 194.2V189.912H283.078C282.971 189.912 282.886 189.88 282.822 189.816C282.758 189.752 282.726 189.667 282.726 189.56V189.048C282.726 188.941 282.758 188.856 282.822 188.792C282.886 188.717 282.971 188.68 283.078 188.68H284.342V186.008C284.342 185.901 284.374 185.816 284.438 185.752C284.502 185.677 284.587 185.64 284.694 185.64H285.398C285.505 185.64 285.59 185.677 285.654 185.752C285.729 185.816 285.766 185.901 285.766 186.008V188.68H287.75C287.857 188.68 287.942 188.717 288.006 188.792C288.081 188.856 288.118 188.941 288.118 189.048V189.56C288.118 189.667 288.081 189.752 288.006 189.816C287.942 189.88 287.857 189.912 287.75 189.912H285.766V194.088C285.766 194.632 285.851 195.043 286.022 195.32C286.203 195.597 286.507 195.736 286.934 195.736H287.91C288.017 195.736 288.102 195.773 288.166 195.848C288.23 195.912 288.262 195.997 288.262 196.104V196.632C288.262 196.739 288.23 196.829 288.166 196.904C288.102 196.968 288.017 197 287.91 197H286.822ZM290.065 187.112C289.958 187.112 289.868 187.08 289.793 187.016C289.729 186.941 289.697 186.851 289.697 186.744V185.912C289.697 185.805 289.729 185.715 289.793 185.64C289.868 185.565 289.958 185.528 290.065 185.528H291.009C291.116 185.528 291.206 185.565 291.281 185.64C291.356 185.715 291.393 185.805 291.393 185.912V186.744C291.393 186.851 291.356 186.941 291.281 187.016C291.206 187.08 291.116 187.112 291.009 187.112H290.065ZM290.193 197C290.086 197 289.996 196.968 289.921 196.904C289.857 196.829 289.825 196.739 289.825 196.632V189.048C289.825 188.941 289.857 188.856 289.921 188.792C289.996 188.717 290.086 188.68 290.193 188.68H290.897C291.004 188.68 291.089 188.717 291.153 188.792C291.228 188.856 291.265 188.941 291.265 189.048V196.632C291.265 196.739 291.228 196.829 291.153 196.904C291.089 196.968 291.004 197 290.897 197H290.193ZM294.037 197C293.93 197 293.839 196.968 293.765 196.904C293.701 196.829 293.669 196.739 293.669 196.632V189.048C293.669 188.941 293.701 188.856 293.765 188.792C293.839 188.717 293.93 188.68 294.037 188.68H294.725C294.842 188.68 294.933 188.712 294.997 188.776C295.061 188.84 295.093 188.931 295.093 189.048V189.752C295.413 189.357 295.781 189.053 296.197 188.84C296.623 188.627 297.151 188.52 297.781 188.52C298.805 188.52 299.599 188.851 300.165 189.512C300.73 190.163 301.013 191.027 301.013 192.104V196.632C301.013 196.739 300.975 196.829 300.901 196.904C300.837 196.968 300.751 197 300.645 197H299.909C299.802 197 299.711 196.968 299.637 196.904C299.573 196.829 299.541 196.739 299.541 196.632V192.2C299.541 191.432 299.354 190.835 298.981 190.408C298.607 189.981 298.074 189.768 297.381 189.768C296.698 189.768 296.154 189.987 295.749 190.424C295.343 190.851 295.141 191.443 295.141 192.2V196.632C295.141 196.739 295.103 196.829 295.029 196.904C294.965 196.968 294.879 197 294.773 197H294.037ZM306.701 200.52C305.816 200.52 305.106 200.371 304.573 200.072C304.04 199.773 303.661 199.432 303.437 199.048C303.224 198.664 303.117 198.333 303.117 198.056C303.117 197.96 303.154 197.875 303.229 197.8C303.304 197.736 303.389 197.704 303.485 197.704H304.189C304.285 197.704 304.365 197.725 304.429 197.768C304.493 197.821 304.546 197.912 304.589 198.04C304.888 198.893 305.565 199.32 306.621 199.32C307.421 199.32 308.013 199.149 308.397 198.808C308.781 198.467 308.973 197.864 308.973 197V195.896C308.354 196.685 307.49 197.08 306.381 197.08C305.25 197.08 304.402 196.717 303.837 195.992C303.282 195.267 302.989 194.349 302.957 193.24L302.941 192.792L302.957 192.36C302.989 191.261 303.282 190.349 303.837 189.624C304.402 188.888 305.25 188.52 306.381 188.52C307.501 188.52 308.376 188.931 309.005 189.752V189.064C309.005 188.957 309.037 188.867 309.101 188.792C309.176 188.717 309.266 188.68 309.373 188.68H310.061C310.168 188.68 310.253 188.717 310.317 188.792C310.392 188.867 310.429 188.957 310.429 189.064V196.824C310.429 199.288 309.186 200.52 306.701 200.52ZM306.669 195.832C307.416 195.832 307.976 195.592 308.349 195.112C308.733 194.621 308.941 194.035 308.973 193.352C308.984 193.256 308.989 193.069 308.989 192.792C308.989 192.525 308.984 192.344 308.973 192.248C308.941 191.565 308.733 190.984 308.349 190.504C307.976 190.013 307.416 189.768 306.669 189.768C305.901 189.768 305.341 190.013 304.989 190.504C304.648 190.984 304.461 191.608 304.429 192.376L304.413 192.792L304.429 193.224C304.461 193.992 304.648 194.621 304.989 195.112C305.341 195.592 305.901 195.832 306.669 195.832Z" fill="#C1C7D0"/>
<circle cx="190.5" cy="191.5" r="6.5" fill="#E3FCF9"/>
<path d="M144.04 72C143.907 72 143.793 71.96 143.7 71.88C143.62 71.7867 143.58 71.6733 143.58 71.54V68.62H137.08C136.947 68.62 136.833 68.58 136.74 68.5C136.66 68.4067 136.62 68.2933 136.62 68.16V67.42C136.62 67.2333 136.693 67.0333 136.84 66.82L142.86 58.34C142.927 58.2333 143.027 58.1533 143.16 58.1C143.293 58.0333 143.44 58 143.6 58H144.96C145.107 58 145.22 58.04 145.3 58.12C145.38 58.2 145.42 58.3133 145.42 58.46V66.94H147.24C147.373 66.94 147.48 66.9867 147.56 67.08C147.653 67.16 147.7 67.2667 147.7 67.4V68.16C147.7 68.2933 147.653 68.4067 147.56 68.5C147.48 68.58 147.373 68.62 147.24 68.62H145.42V71.54C145.42 71.6733 145.373 71.7867 145.28 71.88C145.2 71.96 145.093 72 144.96 72H144.04ZM138.7 66.98H143.6V60.02L138.7 66.98ZM154.183 72.2C153.183 72.2 152.317 72.02 151.583 71.66C150.85 71.3 150.29 70.8333 149.903 70.26C149.517 69.6733 149.31 69.0467 149.283 68.38V68.34C149.283 68.2333 149.323 68.1467 149.403 68.08C149.483 68.0133 149.577 67.98 149.683 67.98H150.663C150.943 67.98 151.123 68.1267 151.203 68.42C151.403 69.14 151.77 69.68 152.303 70.04C152.85 70.3867 153.477 70.56 154.183 70.56C155.09 70.56 155.843 70.2867 156.443 69.74C157.043 69.18 157.343 68.4133 157.343 67.44C157.343 66.5467 157.043 65.84 156.443 65.32C155.843 64.7867 155.09 64.52 154.183 64.52C153.703 64.52 153.317 64.58 153.023 64.7C152.73 64.82 152.43 64.9933 152.123 65.22C151.95 65.3533 151.803 65.4533 151.683 65.52C151.577 65.5733 151.457 65.6 151.323 65.6H150.363C150.243 65.6 150.137 65.56 150.043 65.48C149.95 65.3867 149.91 65.28 149.923 65.16L150.543 58.5C150.583 58.1667 150.75 58 151.043 58H157.963C158.11 58 158.223 58.04 158.303 58.12C158.383 58.2 158.423 58.3133 158.423 58.46V59.2C158.423 59.3333 158.377 59.44 158.283 59.52C158.203 59.6 158.097 59.64 157.963 59.64H152.203L151.843 63.66C152.483 63.2067 153.343 62.98 154.423 62.98C155.317 62.98 156.13 63.16 156.863 63.52C157.597 63.8667 158.177 64.38 158.603 65.06C159.043 65.74 159.263 66.5467 159.263 67.48C159.263 68.4667 159.043 69.32 158.603 70.04C158.177 70.7467 157.577 71.2867 156.803 71.66C156.043 72.02 155.17 72.2 154.183 72.2ZM164.059 65.02C163.193 65.02 162.506 64.7933 161.999 64.34C161.506 63.8733 161.239 63.2333 161.199 62.42C161.186 62.1933 161.179 61.9 161.179 61.54C161.179 61.1533 161.186 60.84 161.199 60.6C161.239 59.7733 161.499 59.12 161.979 58.64C162.459 58.1467 163.153 57.9 164.059 57.9C164.966 57.9 165.659 58.1467 166.139 58.64C166.633 59.12 166.899 59.7733 166.939 60.6C166.966 61.08 166.979 61.3933 166.979 61.54C166.979 61.6733 166.966 61.9667 166.939 62.42C166.899 63.2333 166.626 63.8733 166.119 64.34C165.613 64.7933 164.926 65.02 164.059 65.02ZM162.379 72C162.259 72 162.159 71.9667 162.079 71.9C161.999 71.82 161.959 71.72 161.959 71.6C161.959 71.52 161.986 71.4467 162.039 71.38L171.919 58.38C172.026 58.2333 172.119 58.1333 172.199 58.08C172.293 58.0267 172.419 58 172.579 58H173.219C173.339 58 173.433 58.04 173.499 58.12C173.579 58.1867 173.619 58.28 173.619 58.4C173.619 58.48 173.593 58.5533 173.539 58.62L163.679 71.62C163.573 71.7533 163.473 71.8533 163.379 71.92C163.299 71.9733 163.179 72 163.019 72H162.379ZM164.059 63.8C164.539 63.8 164.893 63.66 165.119 63.38C165.346 63.1 165.479 62.7533 165.519 62.34C165.546 61.86 165.559 61.58 165.559 61.5C165.559 61.38 165.546 61.1067 165.519 60.68C165.493 60.2667 165.359 59.92 165.119 59.64C164.893 59.3467 164.539 59.2 164.059 59.2C163.579 59.2 163.226 59.3467 162.999 59.64C162.773 59.92 162.646 60.2667 162.619 60.68C162.606 60.8933 162.599 61.1667 162.599 61.5C162.599 61.82 162.606 62.1 162.619 62.34C162.659 62.74 162.786 63.0867 162.999 63.38C163.226 63.66 163.579 63.8 164.059 63.8ZM171.499 72.12C170.633 72.12 169.946 71.8733 169.439 71.38C168.946 70.8867 168.679 70.2333 168.639 69.42C168.613 69.02 168.599 68.7533 168.599 68.62C168.599 68.4867 168.613 68.1533 168.639 67.62C168.679 66.7933 168.939 66.14 169.419 65.66C169.899 65.1667 170.593 64.92 171.499 64.92C172.406 64.92 173.099 65.1667 173.579 65.66C174.073 66.14 174.339 66.7933 174.379 67.62C174.406 68.1 174.419 68.4067 174.419 68.54C174.419 68.6733 174.406 68.9667 174.379 69.42C174.339 70.2333 174.066 70.8867 173.559 71.38C173.053 71.8733 172.366 72.12 171.499 72.12ZM171.499 70.82C171.979 70.82 172.333 70.68 172.559 70.4C172.786 70.12 172.919 69.7733 172.959 69.36C172.986 68.88 172.999 68.5933 172.999 68.5C172.999 68.3933 172.986 68.1267 172.959 67.7C172.933 67.2867 172.799 66.94 172.559 66.66C172.333 66.3667 171.979 66.22 171.499 66.22C171.019 66.22 170.666 66.3667 170.439 66.66C170.213 66.94 170.086 67.2867 170.059 67.7C170.046 67.9133 170.039 68.18 170.039 68.5C170.039 68.8333 170.046 69.12 170.059 69.36C170.086 69.76 170.213 70.1067 170.439 70.4C170.666 70.68 171.019 70.82 171.499 70.82Z" fill="#64C8BC"/>
<path d="M117.76 96.2C115.987 96.2 114.633 95.72 113.7 94.76C112.78 93.7867 112.287 92.46 112.22 90.78C112.207 90.42 112.2 89.8333 112.2 89.02C112.2 88.1933 112.207 87.5933 112.22 87.22C112.287 85.54 112.78 84.22 113.7 83.26C114.633 82.2867 115.987 81.8 117.76 81.8C118.947 81.8 119.953 82.0133 120.78 82.44C121.607 82.8533 122.227 83.4 122.64 84.08C123.067 84.76 123.3 85.4867 123.34 86.26C123.34 86.38 123.293 86.48 123.2 86.56C123.12 86.6267 123.02 86.66 122.9 86.66H121.9C121.767 86.66 121.66 86.6267 121.58 86.56C121.5 86.4933 121.44 86.38 121.4 86.22C121.173 85.1933 120.76 84.4733 120.16 84.06C119.573 83.6467 118.773 83.44 117.76 83.44C115.44 83.44 114.233 84.7333 114.14 87.32C114.127 87.68 114.12 88.2333 114.12 88.98C114.12 89.7267 114.127 90.2933 114.14 90.68C114.233 93.2533 115.44 94.54 117.76 94.54C118.76 94.54 119.56 94.3333 120.16 93.92C120.76 93.5067 121.173 92.7933 121.4 91.78C121.44 91.62 121.5 91.5067 121.58 91.44C121.66 91.3733 121.767 91.34 121.9 91.34H122.9C123.02 91.34 123.12 91.38 123.2 91.46C123.293 91.5267 123.34 91.62 123.34 91.74C123.3 92.5133 123.067 93.24 122.64 93.92C122.227 94.6 121.607 95.1533 120.78 95.58C119.953 95.9933 118.947 96.2 117.76 96.2ZM130.021 96.2C128.554 96.2 127.421 95.7867 126.621 94.96C125.834 94.1333 125.414 93.0333 125.361 91.66L125.341 90.8L125.361 89.94C125.414 88.5667 125.841 87.4667 126.641 86.64C127.454 85.8133 128.581 85.4 130.021 85.4C131.461 85.4 132.581 85.8133 133.381 86.64C134.194 87.4667 134.627 88.5667 134.681 89.94C134.707 90.2333 134.721 90.52 134.721 90.8C134.721 91.08 134.707 91.3667 134.681 91.66C134.627 93.0333 134.201 94.1333 133.401 94.96C132.614 95.7867 131.487 96.2 130.021 96.2ZM130.021 94.7C130.874 94.7 131.547 94.4333 132.041 93.9C132.547 93.3533 132.821 92.5733 132.861 91.56C132.874 91.4267 132.881 91.1733 132.881 90.8C132.881 90.4267 132.874 90.1733 132.861 90.04C132.821 89.0267 132.547 88.2533 132.041 87.72C131.547 87.1733 130.874 86.9 130.021 86.9C129.167 86.9 128.487 87.1733 127.981 87.72C127.487 88.2533 127.221 89.0267 127.181 90.04L127.161 90.8L127.181 91.56C127.221 92.5733 127.487 93.3533 127.981 93.9C128.487 94.4333 129.167 94.7 130.021 94.7ZM137.706 96C137.573 96 137.459 95.96 137.366 95.88C137.286 95.7867 137.246 95.6733 137.246 95.54V86.06C137.246 85.9267 137.286 85.82 137.366 85.74C137.459 85.6467 137.573 85.6 137.706 85.6H138.546C138.679 85.6 138.786 85.6467 138.866 85.74C138.946 85.82 138.986 85.9267 138.986 86.06V86.74C139.706 85.8467 140.679 85.4 141.906 85.4C143.373 85.4 144.413 86.0133 145.026 87.24C145.346 86.68 145.799 86.2333 146.386 85.9C146.986 85.5667 147.653 85.4 148.386 85.4C149.479 85.4 150.373 85.7733 151.066 86.52C151.759 87.2667 152.106 88.3467 152.106 89.76V95.54C152.106 95.6733 152.059 95.7867 151.966 95.88C151.886 95.96 151.779 96 151.646 96H150.786C150.653 96 150.539 95.96 150.446 95.88C150.366 95.7867 150.326 95.6733 150.326 95.54V89.94C150.326 88.8733 150.106 88.1133 149.666 87.66C149.226 87.1933 148.646 86.96 147.926 86.96C147.286 86.96 146.733 87.2 146.266 87.68C145.813 88.1467 145.586 88.9 145.586 89.94V95.54C145.586 95.6733 145.539 95.7867 145.446 95.88C145.366 95.96 145.259 96 145.126 96H144.246C144.113 96 143.999 95.96 143.906 95.88C143.826 95.7867 143.786 95.6733 143.786 95.54V89.94C143.786 88.8867 143.553 88.1267 143.086 87.66C142.633 87.1933 142.066 86.96 141.386 86.96C140.746 86.96 140.193 87.1933 139.726 87.66C139.273 88.1267 139.046 88.88 139.046 89.92V95.54C139.046 95.6733 138.999 95.7867 138.906 95.88C138.826 95.96 138.719 96 138.586 96H137.706ZM155.48 99.8C155.347 99.8 155.233 99.76 155.14 99.68C155.06 99.6 155.02 99.4867 155.02 99.34V86.06C155.02 85.9133 155.06 85.8 155.14 85.72C155.233 85.64 155.347 85.6 155.48 85.6H156.32C156.467 85.6 156.58 85.64 156.66 85.72C156.74 85.8 156.78 85.9133 156.78 86.06V86.94C157.553 85.9133 158.653 85.4 160.08 85.4C161.48 85.4 162.527 85.8467 163.22 86.74C163.927 87.62 164.3 88.7467 164.34 90.12C164.353 90.2667 164.36 90.4933 164.36 90.8C164.36 91.1067 164.353 91.3333 164.34 91.48C164.3 92.84 163.927 93.9667 163.22 94.86C162.527 95.7533 161.48 96.2 160.08 96.2C158.653 96.2 157.573 95.6933 156.84 94.68V99.34C156.84 99.4733 156.793 99.58 156.7 99.66C156.62 99.7533 156.513 99.8 156.38 99.8H155.48ZM159.7 94.64C160.66 94.64 161.36 94.34 161.8 93.74C162.24 93.14 162.48 92.3533 162.52 91.38C162.533 91.2467 162.54 91.0533 162.54 90.8C162.54 88.24 161.593 86.96 159.7 86.96C158.767 86.96 158.06 87.2733 157.58 87.9C157.113 88.5133 156.867 89.24 156.84 90.08C156.827 90.2267 156.82 90.4867 156.82 90.86C156.82 91.2333 156.827 91.4933 156.84 91.64C156.867 92.4533 157.12 93.16 157.6 93.76C158.093 94.3467 158.793 94.64 159.7 94.64ZM167.355 96C167.222 96 167.108 95.96 167.015 95.88C166.935 95.7867 166.895 95.6733 166.895 95.54V82.26C166.895 82.1133 166.935 82 167.015 81.92C167.108 81.84 167.222 81.8 167.355 81.8H168.235C168.368 81.8 168.475 81.8467 168.555 81.94C168.648 82.02 168.695 82.1267 168.695 82.26V95.54C168.695 95.6733 168.648 95.7867 168.555 95.88C168.475 95.96 168.368 96 168.235 96H167.355ZM175.819 96.2C174.459 96.2 173.373 95.78 172.559 94.94C171.746 94.0867 171.299 92.9267 171.219 91.46L171.199 90.78L171.219 90.12C171.299 88.68 171.746 87.5333 172.559 86.68C173.373 85.8267 174.459 85.4 175.819 85.4C177.286 85.4 178.419 85.8667 179.219 86.8C180.033 87.7333 180.439 89 180.439 90.6V90.96C180.439 91.0933 180.393 91.2067 180.299 91.3C180.219 91.38 180.113 91.42 179.979 91.42H173.039V91.6C173.079 92.4667 173.346 93.2067 173.839 93.82C174.333 94.4333 174.986 94.74 175.799 94.74C176.426 94.74 176.933 94.62 177.319 94.38C177.719 94.1267 178.019 93.8667 178.219 93.6C178.339 93.44 178.433 93.3467 178.499 93.32C178.566 93.28 178.679 93.26 178.839 93.26H179.719C179.839 93.26 179.939 93.2933 180.019 93.36C180.113 93.4267 180.159 93.5133 180.159 93.62C180.159 93.9133 179.979 94.2667 179.619 94.68C179.259 95.0933 178.746 95.4533 178.079 95.76C177.426 96.0533 176.673 96.2 175.819 96.2ZM178.619 90.06V90C178.619 89.0667 178.366 88.3067 177.859 87.72C177.353 87.1333 176.673 86.84 175.819 86.84C174.953 86.84 174.273 87.1333 173.779 87.72C173.286 88.3067 173.039 89.0667 173.039 90V90.06H178.619ZM186.813 96C184.746 96 183.713 94.8333 183.713 92.5V87.14H182.133C181.999 87.14 181.893 87.1 181.813 87.02C181.733 86.94 181.693 86.8333 181.693 86.7V86.06C181.693 85.9267 181.733 85.82 181.813 85.74C181.893 85.6467 181.999 85.6 182.133 85.6H183.713V82.26C183.713 82.1267 183.753 82.02 183.833 81.94C183.913 81.8467 184.019 81.8 184.153 81.8H185.033C185.166 81.8 185.273 81.8467 185.353 81.94C185.446 82.02 185.493 82.1267 185.493 82.26V85.6H187.973C188.106 85.6 188.213 85.6467 188.293 85.74C188.386 85.82 188.433 85.9267 188.433 86.06V86.7C188.433 86.8333 188.386 86.94 188.293 87.02C188.213 87.1 188.106 87.14 187.973 87.14H185.493V92.36C185.493 93.04 185.599 93.5533 185.813 93.9C186.039 94.2467 186.419 94.42 186.953 94.42H188.173C188.306 94.42 188.413 94.4667 188.493 94.56C188.573 94.64 188.613 94.7467 188.613 94.88V95.54C188.613 95.6733 188.573 95.7867 188.493 95.88C188.413 95.96 188.306 96 188.173 96H186.813ZM194.686 96.2C193.326 96.2 192.24 95.78 191.426 94.94C190.613 94.0867 190.166 92.9267 190.086 91.46L190.066 90.78L190.086 90.12C190.166 88.68 190.613 87.5333 191.426 86.68C192.24 85.8267 193.326 85.4 194.686 85.4C196.153 85.4 197.286 85.8667 198.086 86.8C198.9 87.7333 199.306 89 199.306 90.6V90.96C199.306 91.0933 199.26 91.2067 199.166 91.3C199.086 91.38 198.98 91.42 198.846 91.42H191.906V91.6C191.946 92.4667 192.213 93.2067 192.706 93.82C193.2 94.4333 193.853 94.74 194.666 94.74C195.293 94.74 195.8 94.62 196.186 94.38C196.586 94.1267 196.886 93.8667 197.086 93.6C197.206 93.44 197.3 93.3467 197.366 93.32C197.433 93.28 197.546 93.26 197.706 93.26H198.586C198.706 93.26 198.806 93.2933 198.886 93.36C198.98 93.4267 199.026 93.5133 199.026 93.62C199.026 93.9133 198.846 94.2667 198.486 94.68C198.126 95.0933 197.613 95.4533 196.946 95.76C196.293 96.0533 195.54 96.2 194.686 96.2ZM197.486 90.06V90C197.486 89.0667 197.233 88.3067 196.726 87.72C196.22 87.1333 195.54 86.84 194.686 86.84C193.82 86.84 193.14 87.1333 192.646 87.72C192.153 88.3067 191.906 89.0667 191.906 90V90.06H197.486Z" fill="#64C8BC"/>
<path fill-rule="evenodd" clip-rule="evenodd" d="M156 154C198.526 154 233 119.526 233 77C233 34.4741 198.526 0 156 0C113.474 0 79 34.4741 79 77C79 119.526 113.474 154 156 154ZM155.5 148C194.988 148 227 115.988 227 76.5C227 37.0116 194.988 5 155.5 5C116.012 5 84 37.0116 84 76.5C84 115.988 116.012 148 155.5 148Z" fill="#6554C0"/>
<path fill-rule="evenodd" clip-rule="evenodd" d="M226.999 76.871C226.799 116.189 194.865 148 155.5 148C116.012 148 84 115.988 84 76.5C84 37.0116 116.012 5 155.5 5C155.667 5 155.833 5.00057 156 5.00171V0C113.474 0 79 34.4741 79 77C79 119.526 113.474 154 156 154C198.526 154 233 119.526 233 77C233 76.957 233 76.914 233 76.871H226.999Z" fill="#C6CCD5"/>
</svg>
