<svg width="176" height="88" viewBox="0 0 176 88" fill="none" xmlns="http://www.w3.org/2000/svg">
<g filter="url(#filter0_d)">
<rect x="8" y="2" width="160" height="72" rx="8" fill="#F8A310"/>
</g>
<path fill-rule="evenodd" clip-rule="evenodd" d="M72.7574 35.1195C72.5386 35.5024 72.2582 35.8306 72.142 35.7417C72.0258 35.646 72.1762 35.3041 72.4223 34.846L80.901 19.5502C81.1198 19.1809 81.4754 18.8664 81.8036 19.0579C82.1318 19.2493 82.0429 19.6596 81.8788 19.9331L72.7574 35.1195ZM71.0275 36.3434C71.0155 36.3697 71.0033 36.3969 70.9907 36.4247C70.853 36.7305 70.6827 37.1087 70.501 37.0272C70.3027 36.9383 70.6514 36.2546 70.6514 36.2546L75.6292 24.104C75.7865 23.7485 76.142 23.2972 76.5318 23.4887C76.898 23.6686 76.5759 24.2651 76.3996 24.5917L76.3677 24.6511C74.0409 29.8784 72.9948 32.1229 71.972 34.3174L71.9719 34.3177C71.6662 34.9736 71.3626 35.625 71.0275 36.3503V36.3434ZM68.0804 36.6306C67.971 36.6306 67.9642 36.152 67.9915 35.8375L68.9078 26.7639C68.9997 26.3454 69.1843 25.9529 69.448 25.6152L69.5369 25.5058C69.7898 25.2049 69.9745 25.2323 69.9061 25.5605L68.3608 35.8169L68.3473 35.8901C68.2724 36.2984 68.2164 36.6033 68.0873 36.6033L68.0804 36.6306ZM66.5693 28.781L66.1932 37.3759C66.1932 37.7657 66.1932 38.2648 66.0155 38.2306C65.8413 38.1971 65.8378 37.993 65.8313 37.6183L65.8308 37.5947L65.6667 30.5383C65.6782 30.1017 65.7832 29.6727 65.9744 29.2801L66.2343 28.7947C66.4257 28.4528 66.5967 28.4596 66.5693 28.7947V28.781ZM63.2052 33.458L63.0137 33.9776C62.8539 34.5081 62.8327 35.0708 62.9522 35.6118L63.9163 40.6033C63.9915 41.0341 64.1283 41.2187 64.2719 41.1913C64.4155 41.164 64.4155 40.8221 64.3197 40.07L63.5881 33.4511C63.5334 33.034 63.3556 33.0272 63.1983 33.4511L63.2052 33.458ZM63.6086 53.6769C63.424 55.4 62.0838 56.9726 59.1026 56.9726C57.6972 56.9947 56.3114 56.6406 55.0889 55.947V53.0615H56.0051C56.0133 53.3726 56.0384 53.6831 56.0803 53.9914C56.1239 54.3039 56.241 54.6016 56.4222 54.8598C57.0764 55.6563 58.0741 56.089 59.1026 56.0222C61.106 56.0222 61.7693 54.8872 61.7556 53.9094C61.7556 52.6854 60.8941 52.3504 58.624 51.7829C56.3539 51.2153 55 50.4359 55 48.3093C55 46.258 56.4427 44.6922 59.3898 44.6922C60.5993 44.6427 61.8022 44.8941 62.8907 45.4239V47.988H62.0359C62.0324 47.6764 62.0049 47.3655 61.9539 47.0581C61.8953 46.7282 61.7177 46.4314 61.4547 46.2239C60.7788 45.7588 59.9601 45.5481 59.1436 45.629C57.906 45.6768 56.9009 46.3127 56.8804 47.3316C56.8598 48.3504 57.2633 48.8564 59.4445 49.3282C61.2633 49.7316 62.2342 50.094 62.8291 50.6957C63.6223 51.4957 63.7454 52.4871 63.6154 53.6769H63.6086ZM109.954 56.9795C112.224 56.9795 113.346 55.735 113.476 54.2991L113.482 54.2786C113.605 53.488 113.375 52.6835 112.853 52.0769C112.361 51.5709 111.746 51.3726 110.262 51.0718C108.621 50.7641 108.306 50.5247 108.306 49.7042C108.306 48.8837 109.277 48.4803 109.961 48.4803C110.629 48.4069 111.301 48.5822 111.848 48.9726C112.033 49.1355 112.14 49.3691 112.142 49.6153C112.19 49.8683 112.19 50.135 112.19 50.3401H112.976V48.2888C112.121 47.8926 111.184 47.7051 110.241 47.7418C107.944 47.7076 106.87 48.9042 106.857 50.4769C106.843 52.0495 107.609 52.7812 109.517 53.2119C111.424 53.6427 111.971 53.8137 111.971 54.812C111.978 55.5026 111.335 56.241 109.968 56.241C109.223 56.2888 108.495 56.0003 107.985 55.4547C107.838 55.2715 107.743 55.0517 107.711 54.8188C107.674 54.5651 107.654 54.3093 107.65 54.053H106.87V56.2137C107.816 56.7295 108.878 56.9932 109.954 56.9795ZM105.599 53.5812C105.599 54.853 105.441 57 102.453 57C101.824 57 100.484 57 99.6841 56.1863C99.1781 55.6735 98.9388 54.8188 98.9388 53.6085V49.1093C98.9388 48.6922 98.6789 48.576 98.0294 48.576V48.0016H101.968V48.576C101.325 48.576 101.065 48.6922 101.065 49.1093V53.8957C101.065 54.9761 101.147 56.1932 102.775 56.2342C104.6 56.2957 104.737 54.7846 104.737 53.7521V49.1093C104.737 48.6922 104.669 48.5418 104.053 48.5418H103.828V47.9675H106.563V48.5418H106.282C105.653 48.5418 105.599 48.6854 105.599 49.1093V53.5812ZM119.452 56.7333H115.082V56.1726H115.37C116.053 56.1726 116.204 55.8991 116.204 55.4889V48.7606H115.342C114.891 48.7606 114.713 48.8632 114.563 49.082C114.418 49.4848 114.36 49.9134 114.392 50.3401H113.633V47.9948H120.915V50.3333H120.149C120.172 49.9164 120.106 49.4995 119.958 49.1093C119.807 48.8905 119.63 48.788 119.185 48.788H118.337V55.5231C118.337 55.9402 118.508 56.2068 119.171 56.2068H119.459L119.452 56.7333ZM73.4959 49.1025C73.4959 48.6854 73.4548 48.5692 72.8121 48.5692L72.2993 48.5555C71.9921 48.5555 71.8222 48.5858 71.7285 48.6025C71.6283 48.6204 71.6155 48.6227 71.6155 48.5555V53.0547C71.6155 54.8667 71.4582 56.9795 68.4907 56.9795C67.8685 56.9795 66.5214 56.9795 65.7009 56.1658C65.1379 55.4309 64.8763 54.5091 64.9693 53.588V49.1093C64.9693 48.6923 64.7095 48.576 64.0667 48.576V48.0016H67.9915V48.576C67.342 48.576 67.0821 48.6923 67.0821 49.1093V53.882C67.0821 54.9624 67.1642 56.1726 68.7915 56.2205C70.6172 56.282 70.7608 54.7778 70.7608 53.7384V49.1162C70.7608 48.6991 70.6924 48.5828 70.0428 48.5828H69.8445V48.0085H75.5677L79.2258 54.5795V49.1572C79.2258 48.7401 79.1848 48.5692 78.542 48.5692H78.3096V47.9948H80.5865V44.911H90.043V48.0016H94.0225C95.4242 48.0016 97.5712 48.111 97.5712 50.2581C97.593 51.3432 96.816 52.2803 95.7456 52.4598L97.6191 55.7487C97.8268 56.0398 98.172 56.2007 98.5285 56.1726V56.7333H96.9422C96.0259 56.7333 95.5541 56.5692 95.1781 55.8239L93.2909 51.9948H93.9473C95.1097 51.9948 95.4379 51.0786 95.4379 50.2717C95.4379 48.9863 94.8157 48.6786 93.9746 48.6786H92.8943V55.6188C92.8943 56.0359 93.1541 56.1795 93.8379 56.1795V56.7402H89.7831V56.1795C90.4464 56.1795 90.7267 56.0359 90.7267 55.6188V49.1367C90.7267 48.7128 90.7267 48.5692 90.043 48.5692H89.1951V47.5982C89.1951 46.764 89.1199 45.7931 87.9165 45.7931H86.5489V55.1538C86.5489 55.9402 86.7541 56.1726 87.6635 56.1726H87.9575V56.7333H82.6857V56.1726H82.9934C83.8959 56.1726 84.0805 55.9402 84.0805 55.1538V45.7931H82.713C81.4891 45.7931 81.4207 46.7709 81.4207 47.5982V48.576H80.8053C80.1626 48.576 80.0805 48.747 80.0805 49.164V56.7333H78.0292L74.3437 50.135V55.6051C74.3437 56.0154 74.4189 56.1726 75.0617 56.1726H75.2873V56.7333H72.5523V56.1726H72.7779C73.4206 56.1726 73.4959 56.0154 73.4959 55.6051V49.1025ZM65.2633 39.0221C65.2599 38.9179 65.2565 38.8111 65.2565 38.7093L65.065 34.5998C65.0514 34.1827 64.9009 34.1007 64.7437 34.4152C64.5756 34.9425 64.5174 35.4987 64.5727 36.0494L64.8804 39.0101C64.9556 39.5503 65.0308 39.7281 65.1744 39.6939C65.2841 39.6678 65.2741 39.3586 65.2633 39.0221ZM67.3078 37.0956L67.8616 30.5383H67.8821C67.9437 30.1827 67.8138 30.0391 67.636 30.3468C67.4014 30.7588 67.2373 31.2072 67.1505 31.6733L66.9112 37.3007C66.8702 37.7315 66.9044 38.0187 67.0411 38.0255C67.1779 38.0323 67.2462 37.5605 67.3078 37.0956ZM71.2873 27.2836C71.3625 26.9553 71.0275 26.8254 70.8223 27.0579L70.8428 27.0511C70.607 27.3579 70.4413 27.7126 70.3574 28.0904L68.9146 36.3776C68.7984 36.7674 68.771 37.2392 68.9146 37.2597C69.0582 37.2802 69.2018 36.7742 69.277 36.446L71.2873 27.2836ZM72.354 37.3828C72.2377 37.2665 72.436 36.8905 72.6822 36.5144L82.419 22.3741C82.6788 21.9775 83.26 21.5331 83.6156 21.7382C83.9711 21.9433 83.9438 22.3263 83.6703 22.7023L73.0446 36.8016C72.7779 37.1776 72.477 37.5264 72.3608 37.4033L72.354 37.3828ZM74.4531 36.2614C74.5899 36.4255 75.2326 35.7417 75.2326 35.7417L89.9678 20.863C90.2155 20.603 90.233 20.1999 90.0088 19.9194L89.5985 19.4134C89.4866 19.3064 89.334 19.2526 89.1797 19.2657C89.0254 19.2787 88.8841 19.3575 88.7917 19.4818L75.1848 35.0853L74.8634 35.4682C74.8236 35.5184 74.7844 35.5667 74.7467 35.6132C74.5119 35.9025 74.3353 36.12 74.4531 36.2614ZM74.1454 38.2443C74.0429 38.1418 74.2753 37.8204 74.7061 37.4443L89.1404 24.1656C89.2515 24.0481 89.4061 23.9815 89.5678 23.9815C89.7295 23.9815 89.884 24.0481 89.9951 24.1656C90.2355 24.3772 90.397 24.664 90.4532 24.9793C90.532 25.3794 90.3212 25.5656 90.0383 25.8155L90.002 25.8476L74.9591 37.8272C74.5899 38.1554 74.2753 38.3879 74.1318 38.2717L74.1454 38.2443ZM93.9404 25.0476L77.1266 37.0546L77.1472 37.0819C77.1098 37.1115 77.0725 37.1409 77.0355 37.17L77.0355 37.17L77.0348 37.1705L77.0348 37.1705C76.6799 37.4497 76.3644 37.6979 76.4634 37.8341C76.5728 37.9845 77.0036 37.7452 77.4275 37.4785L94.5216 27.5571C94.8672 27.3397 95.0583 26.9441 95.014 26.5382L94.6242 25.1707C94.5558 24.8493 94.2618 24.7946 93.9404 25.0476ZM75.3352 39.5777C75.2943 39.4083 75.6126 39.2489 75.9961 39.0569C76.0615 39.0241 76.1289 38.9903 76.1967 38.9554L91.2396 31.3725C91.6498 31.1468 91.9712 31.2631 91.9644 31.6118L92.0327 33.2802C91.9456 33.7412 91.6201 34.1213 91.178 34.2785L76.354 39.4477C75.8343 39.6529 75.383 39.7691 75.342 39.5777H75.3352ZM78.4395 40.2204L92.9695 38.1691C93.4791 38.1142 93.9013 37.7492 94.0293 37.2529L94.2413 35.5298C94.2892 35.14 93.9063 34.9759 93.4208 35.14L78.3779 39.7144C78.3233 39.7333 78.2692 39.7518 78.2161 39.7699C77.7507 39.9288 77.364 40.0608 77.407 40.2204C77.4498 40.3796 77.7886 40.325 78.2664 40.248L78.267 40.2479C78.3227 40.2389 78.3803 40.2297 78.4395 40.2204ZM76.436 41.629C76.395 41.417 77.1198 41.2939 77.6805 41.2324L90.5558 39.7281C91.1302 39.6665 91.602 39.9742 91.4105 40.4734L91.1507 41.1572C90.9415 41.6332 90.4417 41.9124 89.9267 41.8409H77.5643C77.0241 41.8409 76.4566 41.8409 76.4155 41.6153L76.436 41.629ZM70.7266 34.6272C70.9386 34.0118 74.6583 22.5792 74.6583 22.5792V22.5724C74.6616 22.5621 74.6651 22.5515 74.6687 22.5407C74.7802 22.2003 74.9682 21.6265 74.6104 21.5536C74.3984 21.5126 73.8856 21.9433 73.7147 22.4425L70.2001 34.8597C70.169 34.9952 70.1325 35.1238 70.0994 35.2404C70.0088 35.5594 69.9437 35.7887 70.0839 35.8238C70.2753 35.8716 70.5146 35.2426 70.7266 34.6272Z" fill="white"/>
<defs>
<filter id="filter0_d" x="0" y="0" width="176" height="88" filterUnits="userSpaceOnUse" color-interpolation-filters="sRGB">
<feFlood flood-opacity="0" result="BackgroundImageFix"/>
<feColorMatrix in="SourceAlpha" type="matrix" values="0 0 0 0 0 0 0 0 0 0 0 0 0 0 0 0 0 0 127 0"/>
<feOffset dy="6"/>
<feGaussianBlur stdDeviation="4"/>
<feColorMatrix type="matrix" values="0 0 0 0 0.972549 0 0 0 0 0.639216 0 0 0 0 0.0627451 0 0 0 0.17 0"/>
<feBlend mode="normal" in2="BackgroundImageFix" result="effect1_dropShadow"/>
<feBlend mode="normal" in="SourceGraphic" in2="effect1_dropShadow" result="shape"/>
</filter>
</defs>
</svg>
