<svg width="176" height="88" viewBox="0 0 176 88" fill="none" xmlns="http://www.w3.org/2000/svg">
<g filter="url(#filter0_d)">
<rect x="8" y="2" width="160" height="72" rx="8" fill="#32BA5B"/>
</g>
<path fill-rule="evenodd" clip-rule="evenodd" d="M118.859 36.2966H118.828V30H115.279V40.8339H118.828V37.1792H118.859L120.86 40.8339H125L122.42 36.6288L124.899 33.3064H120.887L118.859 36.2966ZM86 40.8359H91.7057C93.7493 40.8359 95.748 40.5737 95.748 38.0338C95.748 37.0331 94.9037 35.9263 93.5367 35.7382V35.7122C94.8452 35.3659 95.5647 34.6274 95.5647 33.2424C95.5647 31.321 93.8897 30.7586 92.1854 30.7586H86V40.8359ZM89.5568 36.6869H90.5708C91.2767 36.6869 91.9787 36.845 91.9787 37.7116C91.9787 38.4902 91.2319 38.7524 90.5416 38.7524H89.5549V36.6869H89.5568ZM90.5767 32.6599H89.551H89.549V34.6074H90.4928C91.1539 34.6074 91.8734 34.3952 91.8734 33.6426C91.8734 32.8901 91.2533 32.6599 90.5767 32.6599ZM101.489 37.7556C101.489 38.4061 101.12 39.1006 100.389 39.1006C99.8391 39.1006 99.5583 38.9005 99.5583 38.3781C99.5583 37.5995 100.405 37.5255 101.136 37.5255H101.489V37.7556ZM99.6149 35.0417C98.7621 35.0641 97.9249 35.2808 97.1637 35.6761V33.5666C98.1577 33.2515 99.1951 33.1055 100.235 33.1343C102.263 33.1343 104.72 33.5106 104.72 36.2545V40.8359H101.432V39.7411H101.403C100.912 40.5997 100.009 41 99.0065 41C97.6434 41 96.3174 40.3735 96.3174 38.7984C96.3174 36.4867 98.3513 36.0244 100.106 36.0244C100.498 36.0244 100.933 36.0695 101.258 36.1032L101.258 36.1032L101.258 36.1032C101.343 36.1121 101.421 36.1202 101.489 36.1265C101.475 35.1578 100.504 35.0417 99.6149 35.0417ZM105.73 33.3104H109.082V34.6094H109.111C109.533 33.5546 110.504 33.1363 111.506 33.1363C113.392 33.1363 114.082 34.147 114.082 35.6061V40.8339H110.533V36.4987C110.533 36.0644 110.533 35.474 109.915 35.474C109.297 35.474 109.279 36.0744 109.279 36.4987V40.8339H105.73V33.3104Z" fill="white"/>
<path fill-rule="evenodd" clip-rule="evenodd" d="M79 27H52V49H79V27ZM63.6173 44.4057H69.7912C73.3389 44.4057 75.9637 43.6904 75.9637 37.861C75.9637 33.4322 74.2043 31.6726 70.5055 31.6726H55.1765V33.4888H59.6801V44.4057H62.7526V33.4888H69.552C71.6397 33.4888 72.6244 34.4788 72.6244 37.8882C72.6244 41.2716 71.759 42.5912 69.7003 42.5912H66.7188V34.1486H63.6173V44.4057Z" fill="white"/>
<defs>
<filter id="filter0_d" x="0" y="0" width="176" height="88" filterUnits="userSpaceOnUse" color-interpolation-filters="sRGB">
<feFlood flood-opacity="0" result="BackgroundImageFix"/>
<feColorMatrix in="SourceAlpha" type="matrix" values="0 0 0 0 0 0 0 0 0 0 0 0 0 0 0 0 0 0 127 0"/>
<feOffset dy="6"/>
<feGaussianBlur stdDeviation="4"/>
<feColorMatrix type="matrix" values="0 0 0 0 0.196078 0 0 0 0 0.729412 0 0 0 0 0.356863 0 0 0 0.17 0"/>
<feBlend mode="normal" in2="BackgroundImageFix" result="effect1_dropShadow"/>
<feBlend mode="normal" in="SourceGraphic" in2="effect1_dropShadow" result="shape"/>
</filter>
</defs>
</svg>
